<svg width="49" height="66" viewBox="0 0 49 66" fill="none" xmlns="http://www.w3.org/2000/svg">
<path d="M26.642 0L28.479 0.308C28.7403 0.354373 28.977 0.490989 29.1479 0.694025C29.3188 0.897061 29.413 1.15363 29.414 1.419L29.381 11.814C24.6217 11.5427 19.7854 12.3933 14.872 14.366C14.7147 14.4285 14.5783 14.5352 14.479 14.6735C14.3796 14.8118 14.3214 14.9761 14.311 15.147C14.2744 16.071 14.575 16.9877 15.213 17.897L6.56703 19.085C5.84103 18.557 5.65403 17.6807 6.00603 16.456C6.74303 13.915 10.956 13.508 13.233 13.816C13.3158 13.8269 13.3999 13.8211 13.4802 13.799C13.5605 13.7769 13.6354 13.739 13.7002 13.6875C13.765 13.6361 13.8184 13.5722 13.8573 13.4997C13.8961 13.4273 13.9195 13.3477 13.926 13.266C14.1827 10.6847 13.6107 8.459 12.21 6.589C11.9812 6.28366 11.8787 5.90196 11.9237 5.52307C11.9688 5.14417 12.158 4.79715 12.452 4.554C15.092 2.38333 18.1464 0.865333 21.615 0H26.642Z" fill="#141617"/>
<path d="M29.381 11.814L29.436 14.619L15.213 17.897C14.575 16.9877 14.2743 16.071 14.311 15.147C14.3213 14.9761 14.3796 14.8118 14.4789 14.6735C14.5783 14.5352 14.7146 14.4285 14.872 14.366C19.7853 12.3933 24.6216 11.5427 29.381 11.814Z" fill="#128F40"/>
<path d="M29.436 14.619C30.6167 14.8537 31.7973 15.136 32.978 15.466C34.3787 15.862 34.9764 16.6723 34.771 17.897C31.427 16.2837 27.379 16.2067 22.627 17.666C18.3444 18.986 14.0287 19.965 9.68002 20.603C8.28668 20.4783 7.24902 19.9723 6.56702 19.085L15.213 17.897L29.436 14.619Z" fill="white"/>
<path d="M34.7711 17.897C34.9177 20.1997 33.8874 21.9633 31.6801 23.188C29.2821 21.1347 26.6054 20.229 23.6501 20.471C16.3021 21.087 11.6454 21.3877 9.68005 21.373V20.603C14.0287 19.965 18.3444 18.986 22.6271 17.666C27.3791 16.2067 31.4271 16.2837 34.7711 17.897Z" fill="#141617"/>
<path d="M31.68 23.188C33.4547 27.1113 33.143 30.338 30.745 32.868L27.027 36.432L22.836 34.793L19.635 34.265C19.5585 34.2534 19.4853 34.226 19.4199 34.1847C19.3544 34.1434 19.2983 34.0891 19.2549 34.025C19.2115 33.961 19.1818 33.8886 19.1677 33.8126C19.1536 33.7365 19.1554 33.6583 19.173 33.583L19.404 32.494C19.4172 32.4317 19.4183 32.3675 19.4073 32.3051C19.3962 32.2426 19.3731 32.1831 19.3394 32.13C19.3057 32.0769 19.262 32.0311 19.2108 31.9955C19.1596 31.9598 19.1019 31.9348 19.041 31.922L18.656 31.845C18.5637 31.8258 18.4685 31.8257 18.3764 31.8446C18.2843 31.8634 18.1972 31.9009 18.1208 31.9547C18.0443 32.0084 17.98 32.0773 17.932 32.1568C17.8841 32.2364 17.8534 32.325 17.842 32.417C17.798 32.7763 17.8493 33.1577 17.996 33.561C18.0248 33.641 18.0367 33.7261 18.031 33.811C18.0253 33.8958 18.0021 33.9786 17.9628 34.054C17.9235 34.1294 17.8691 34.1959 17.8028 34.2493C17.7366 34.3026 17.6601 34.3417 17.578 34.364C16.9033 34.5547 16.3057 34.4007 15.785 33.902C16.159 33.3373 16.2873 32.89 16.17 32.56C16.1206 32.4188 16.0352 32.293 15.9222 32.195C15.8093 32.097 15.6726 32.0302 15.5259 32.0013C15.3791 31.9724 15.2274 31.9824 15.0857 32.0302C14.944 32.078 14.8172 32.1621 14.718 32.274C14.2707 32.78 14.3587 33.4143 14.982 34.177C12.2467 35.1743 10.0247 34.2357 8.316 31.361C7.73666 30.7743 7.42133 29.832 7.37 28.534L7.469 28.006C7.74766 27.3313 8.206 27.159 8.844 27.489C12.1 29.172 13.97 30.921 17.49 30.602C18.0131 30.5528 18.499 30.3113 18.8529 29.9249C19.2069 29.5384 19.4033 29.0347 19.404 28.512V27.852C19.4037 27.5706 19.3447 27.2924 19.2308 27.0351C19.1169 26.7779 18.9506 26.5471 18.7426 26.3577C18.5345 26.1683 18.2893 26.0243 18.0225 25.935C17.7557 25.8457 17.4732 25.813 17.193 25.839C14.1863 26.1323 11.3227 25.4613 8.602 23.826L8.481 23.056L9.68 21.373C11.6453 21.3877 16.302 21.087 23.65 20.471C26.6053 20.229 29.282 21.1347 31.68 23.188ZM17.006 23.54C17.006 23.1782 16.8623 22.8313 16.6065 22.5755C16.3507 22.3197 16.0038 22.176 15.642 22.176C15.2802 22.176 14.9333 22.3197 14.6775 22.5755C14.4217 22.8313 14.278 23.1782 14.278 23.54C14.278 23.9018 14.4217 24.2487 14.6775 24.5045C14.9333 24.7603 15.2802 24.904 15.642 24.904C16.0038 24.904 16.3507 24.7603 16.6065 24.5045C16.8623 24.2487 17.006 23.9018 17.006 23.54ZM22.264 24.156C22.264 23.7797 22.1145 23.4187 21.8484 23.1526C21.5823 22.8865 21.2213 22.737 20.845 22.737C20.4687 22.737 20.1077 22.8865 19.8416 23.1526C19.5755 23.4187 19.426 23.7797 19.426 24.156C19.426 24.5323 19.5755 24.8933 19.8416 25.1594C20.1077 25.4255 20.4687 25.575 20.845 25.575C21.2213 25.575 21.5823 25.4255 21.8484 25.1594C22.1145 24.8933 22.264 24.5323 22.264 24.156ZM11 31.405C11.11 31.031 10.978 30.6753 10.604 30.338C10.4353 30.1916 10.2209 30.1022 9.99518 30.0841C9.76947 30.066 9.54548 30.1202 9.35911 30.2382C9.17274 30.3561 9.03477 30.5308 8.9673 30.7344C8.89983 30.938 8.90676 31.1586 8.987 31.361C9.031 31.4563 9.52966 31.581 10.483 31.735C10.593 31.7524 10.7059 31.7287 10.8009 31.668C10.8959 31.6074 10.9666 31.514 11 31.405ZM11.363 32.505C11.5317 32.879 11.924 33.0807 12.54 33.11C12.6988 33.1201 12.8569 33.0786 12.9914 32.9916C13.1259 32.9045 13.2298 32.7765 13.288 32.626C13.5153 32.0247 13.409 31.6213 12.969 31.416C12.7632 31.3213 12.5283 31.2784 12.2962 31.293C12.064 31.3076 11.8457 31.3791 11.6706 31.4978C11.4956 31.6165 11.3722 31.7767 11.3172 31.9568C11.2622 32.1369 11.2782 32.3282 11.363 32.505ZM22.891 32.582C22.891 32.3253 22.789 32.0791 22.6075 31.8975C22.4259 31.716 22.1797 31.614 21.923 31.614C21.6663 31.614 21.4201 31.716 21.2385 31.8975C21.057 32.0791 20.955 32.3253 20.955 32.582C20.955 32.8387 21.057 33.0849 21.2385 33.2665C21.4201 33.448 21.6663 33.55 21.923 33.55C22.1797 33.55 22.4259 33.448 22.6075 33.2665C22.789 33.0849 22.891 32.8387 22.891 32.582Z" fill="white"/>
<path d="M15.642 24.904C16.3953 24.904 17.006 24.2933 17.006 23.54C17.006 22.7867 16.3953 22.176 15.642 22.176C14.8886 22.176 14.278 22.7867 14.278 23.54C14.278 24.2933 14.8886 24.904 15.642 24.904Z" fill="#141617"/>
<path d="M20.845 25.575C21.6287 25.575 22.264 24.9397 22.264 24.156C22.264 23.3723 21.6287 22.737 20.845 22.737C20.0613 22.737 19.426 23.3723 19.426 24.156C19.426 24.9397 20.0613 25.575 20.845 25.575Z" fill="#141617"/>
<path d="M7.11697 23.848C7.6083 23.9727 8.1033 23.9653 8.60197 23.826C11.3226 25.4613 14.1863 26.1323 17.193 25.839C17.4731 25.813 17.7556 25.8457 18.0224 25.935C18.2893 26.0243 18.5345 26.1683 18.7426 26.3577C18.9506 26.5471 19.1169 26.7779 19.2308 27.0351C19.3447 27.2924 19.4036 27.5706 19.404 27.852V28.512C19.4033 29.0347 19.2068 29.5384 18.8529 29.9249C18.499 30.3113 18.013 30.5528 17.49 30.602C13.97 30.921 12.1 29.172 8.84397 27.489C8.20597 27.159 7.74763 27.3313 7.46897 28.006C7.5203 27.654 7.4323 27.137 7.20497 26.455L4.21297 25.509C4.16004 25.4921 4.11254 25.4619 4.07486 25.421C4.03718 25.3801 4.01053 25.3299 3.99737 25.2751C3.98421 25.2203 3.98498 25.1626 3.99959 25.1074C4.0142 25.0521 4.04219 25.0011 4.08097 24.959C4.8143 24.2037 5.8263 23.8333 7.11697 23.848Z" fill="#E67A17"/>
<path d="M10.483 31.735C9.52962 31.581 9.03095 31.4563 8.98695 31.361C8.90672 31.1586 8.89978 30.938 8.96725 30.7344C9.03473 30.5308 9.1727 30.3561 9.35907 30.2382C9.54544 30.1203 9.76942 30.066 9.99514 30.0841C10.2209 30.1022 10.4352 30.1916 10.604 30.338C10.978 30.6753 11.11 31.031 11 31.405C10.9665 31.514 10.8958 31.6074 10.8008 31.668C10.7058 31.7287 10.5929 31.7524 10.483 31.735Z" fill="#141617"/>
<path d="M11.363 32.505C11.2782 32.3282 11.2622 32.1369 11.3173 31.9568C11.3723 31.7767 11.4956 31.6165 11.6706 31.4978C11.8457 31.3791 12.064 31.3076 12.2962 31.293C12.5284 31.2784 12.7632 31.3213 12.969 31.416C13.409 31.6213 13.5154 32.0247 13.288 32.626C13.2298 32.7765 13.126 32.9045 12.9914 32.9916C12.8569 33.0786 12.6988 33.1201 12.54 33.11C11.924 33.0807 11.5317 32.879 11.363 32.505Z" fill="#141617"/>
<path d="M14.982 34.177C15.5246 33.649 15.7923 33.5573 15.785 33.902C16.3056 34.4007 16.9033 34.5547 17.578 34.364C17.66 34.3417 17.7366 34.3026 17.8028 34.2493C17.869 34.1959 17.9235 34.1294 17.9628 34.054C18.002 33.9786 18.0253 33.8958 18.031 33.811C18.0367 33.7261 18.0248 33.641 17.996 33.561C17.8493 33.1577 17.798 32.7763 17.842 32.417C17.8534 32.325 17.884 32.2364 17.932 32.1568C17.98 32.0773 18.0443 32.0084 18.1207 31.9547C18.1972 31.9009 18.2843 31.8634 18.3764 31.8446C18.4685 31.8257 18.5637 31.8258 18.656 31.845L19.041 31.922C19.1018 31.9348 19.1595 31.9598 19.2107 31.9955C19.2619 32.0311 19.3056 32.0769 19.3394 32.13C19.3731 32.1831 19.3961 32.2426 19.4072 32.3051C19.4183 32.3675 19.4172 32.4317 19.404 32.494L19.173 33.583C19.1554 33.6583 19.1536 33.7365 19.1677 33.8126C19.1818 33.8886 19.2115 33.961 19.2549 34.025C19.2982 34.0891 19.3544 34.1434 19.4198 34.1847C19.4852 34.226 19.5585 34.2534 19.635 34.265L22.836 34.793L25.322 36.641C25.3945 36.6962 25.455 36.7657 25.4996 36.8449C25.5443 36.9241 25.5721 37.0114 25.5814 37.1013C25.5907 37.1913 25.5813 37.2818 25.5537 37.3673C25.526 37.4528 25.4809 37.5313 25.421 37.598L22.572 40.733C22.5456 40.7623 22.5276 40.7983 22.5198 40.837C22.5121 40.8757 22.5149 40.9158 22.528 40.953C22.5581 40.9895 22.601 41.0132 22.648 41.0193C22.6949 41.0255 22.7425 41.0136 22.781 40.986C24.519 39.7687 25.9343 38.2507 27.027 36.432L30.745 32.868C32.219 34.8553 32.9376 36.85 32.901 38.852C32.8939 39.1427 32.9855 39.4276 33.161 39.661C33.3366 39.8944 33.5859 40.0627 33.869 40.139C38.0416 41.2317 41.9796 43.494 45.683 46.926C44.5316 49.4413 42.5956 51.6927 39.875 53.68C38.929 52.514 38.2103 52.206 37.719 52.756C38.1736 48.268 36.8463 44.3923 33.737 41.129C33.52 40.9015 33.223 40.7674 32.9088 40.7551C32.5947 40.7428 32.2881 40.8532 32.054 41.063C29.051 43.703 25.3 45.617 21.384 43.582C21.0671 43.4162 20.7068 43.3366 20.339 43.351C14.927 43.549 10.131 44.11 6.86397 39.787C6.98864 39.3617 6.93364 38.9363 6.69897 38.511L8.31597 31.361C10.0246 34.2357 12.2466 35.1743 14.982 34.177Z" fill="#128F40"/>
<path d="M21.923 33.55C22.4576 33.55 22.891 33.1166 22.891 32.582C22.891 32.0474 22.4576 31.614 21.923 31.614C21.3883 31.614 20.955 32.0474 20.955 32.582C20.955 33.1166 21.3883 33.55 21.923 33.55Z" fill="#141617"/>
<path d="M15.785 33.902C15.7923 33.5573 15.5246 33.649 14.982 34.177C14.3586 33.4143 14.2706 32.78 14.718 32.274C14.8172 32.1621 14.9439 32.078 15.0856 32.0302C15.2274 31.9824 15.3791 31.9724 15.5258 32.0013C15.6726 32.0302 15.8092 32.097 15.9222 32.195C16.0352 32.293 16.1206 32.4188 16.17 32.56C16.2873 32.89 16.159 33.3373 15.785 33.902Z" fill="#141617"/>
<path d="M22.836 34.793L27.027 36.432C25.9344 38.2507 24.519 39.7687 22.781 40.986C22.7425 41.0136 22.695 41.0255 22.648 41.0193C22.6011 41.0132 22.5582 40.9895 22.528 40.953C22.515 40.9158 22.5122 40.8757 22.5199 40.837C22.5276 40.7983 22.5457 40.7623 22.572 40.733L25.421 37.598C25.4809 37.5313 25.5261 37.4528 25.5537 37.3673C25.5814 37.2818 25.5908 37.1913 25.5815 37.1013C25.5722 37.0114 25.5444 36.9241 25.4997 36.8449C25.455 36.7657 25.3946 36.6962 25.322 36.641L22.836 34.793Z" fill="#141617"/>
<path d="M6.06103 39.248L6.86403 39.787C10.131 44.11 14.927 43.549 20.339 43.351C20.7069 43.3366 21.0672 43.4162 21.384 43.582C25.3 45.617 29.051 43.703 32.054 41.063C32.2882 40.8532 32.5948 40.7428 32.9089 40.7551C33.223 40.7674 33.52 40.9015 33.737 41.129C36.8464 44.3923 38.1737 48.268 37.719 52.756C36.333 60.797 28.457 65.164 20.922 66H16.632C2.75003 64.339 -6.51197 50.226 6.06103 39.248ZM18.568 47.707C18.568 46.966 18.2737 46.2553 17.7497 45.7313C17.2257 45.2074 16.515 44.913 15.774 44.913C15.033 44.913 14.3224 45.2074 13.7984 45.7313C13.2744 46.2553 12.98 46.966 12.98 47.707C12.98 48.448 13.2744 49.1587 13.7984 49.6827C14.3224 50.2066 15.033 50.501 15.774 50.501C16.515 50.501 17.2257 50.2066 17.7497 49.6827C18.2737 49.1587 18.568 48.448 18.568 47.707ZM18.491 56.859C18.491 56.1092 18.1932 55.3902 17.663 54.86C17.1329 54.3298 16.4138 54.032 15.664 54.032C14.9143 54.032 14.1952 54.3298 13.665 54.86C13.1349 55.3902 12.837 56.1092 12.837 56.859C12.837 57.6088 13.1349 58.3278 13.665 58.858C14.1952 59.3882 14.9143 59.686 15.664 59.686C16.4138 59.686 17.1329 59.3882 17.663 58.858C18.1932 58.3278 18.491 57.6088 18.491 56.859Z" fill="white"/>
<path d="M15.774 50.501C17.3171 50.501 18.568 49.2501 18.568 47.707C18.568 46.1639 17.3171 44.913 15.774 44.913C14.2309 44.913 12.98 46.1639 12.98 47.707C12.98 49.2501 14.2309 50.501 15.774 50.501Z" fill="#141617"/>
<path d="M39.875 53.68C42.5957 51.6927 44.5317 49.4413 45.683 46.926C46.5117 47.2927 47.289 47.8427 48.015 48.576C48.3278 48.8914 48.5148 49.3101 48.5412 49.7535C48.5675 50.1969 48.4313 50.6348 48.158 50.985L44.352 55.858C44.1812 56.0772 43.962 56.254 43.7116 56.3746C43.4611 56.4951 43.1862 56.5562 42.9083 56.553C42.6304 56.5498 42.357 56.4824 42.1094 56.3561C41.8618 56.2299 41.6468 56.0481 41.481 55.825L39.875 53.68Z" fill="#141617"/>
<path d="M15.664 59.686C17.2253 59.686 18.491 58.4203 18.491 56.859C18.491 55.2977 17.2253 54.032 15.664 54.032C14.1027 54.032 12.837 55.2977 12.837 56.859C12.837 58.4203 14.1027 59.686 15.664 59.686Z" fill="#141617"/>
</svg>
