<svg width="300" height="60" viewBox="0 0 300 60" fill="none" xmlns="http://www.w3.org/2000/svg">
<path d="M24.22 0L25.89 0.28C26.1275 0.322157 26.3427 0.446354 26.4981 0.630932C26.6534 0.81551 26.739 1.04876 26.74 1.29L26.71 10.74C22.3833 10.4933 17.9867 11.2667 13.52 13.06C13.3769 13.1169 13.253 13.2138 13.1627 13.3396C13.0723 13.4653 13.0194 13.6146 13.01 13.77C12.9767 14.61 13.25 15.4433 13.83 16.27L5.97 17.35C5.31 16.87 5.14 16.0733 5.46 14.96C6.13 12.65 9.96 12.28 12.03 12.56C12.1053 12.5699 12.1817 12.5646 12.2547 12.5445C12.3277 12.5244 12.3958 12.49 12.4547 12.4432C12.5136 12.3964 12.5622 12.3384 12.5975 12.2725C12.6328 12.2066 12.6541 12.1343 12.66 12.06C12.8933 9.71333 12.3733 7.69 11.1 5.99C10.892 5.71242 10.7988 5.36542 10.8397 5.02097C10.8807 4.67652 11.0527 4.36105 11.32 4.14C13.72 2.16667 16.4967 0.786667 19.65 0H24.22Z" fill="#141617"/>
<path d="M234.15 17.31C234.244 17.3308 234.341 17.3293 234.434 17.3054C234.527 17.2816 234.613 17.2362 234.685 17.1729C234.757 17.1095 234.813 17.0301 234.849 16.941C234.884 16.8518 234.899 16.7556 234.89 16.66C234.677 14.3467 234.983 12.77 235.81 11.93C235.917 11.8227 236.045 11.7382 236.186 11.6815C236.327 11.6248 236.478 11.5971 236.63 11.6C240.23 11.6867 241.83 13.3267 241.43 16.52C241.397 16.8175 241.309 17.1058 241.17 17.37L239.53 20.51C239.266 21.015 238.897 21.457 238.446 21.8057C237.996 22.1543 237.475 22.4014 236.92 22.53C233.22 23.4 228.01 23.64 226.43 19.19C225.517 16.63 226.127 14.3567 228.26 12.37C228.294 12.3388 228.32 12.3004 228.337 12.2576C228.355 12.2149 228.362 12.1688 228.359 12.1229C228.356 12.0769 228.343 12.0321 228.321 11.9919C228.298 11.9516 228.267 11.9168 228.23 11.89C227.077 11.05 226.537 10.1433 226.61 9.17C226.73 7.44333 226.8 5.72333 226.82 4.01C226.826 3.66917 226.958 3.34181 227.19 3.09C227.91 2.31 228.97 1.67333 230.37 1.18C231.79 0.69 233.34 2.1 235.12 0.7C235.261 0.593934 235.423 0.52085 235.594 0.486216C235.765 0.451582 235.942 0.456294 236.11 0.5C239.53 1.37 239.59 5.13 240.07 8.65C240.086 8.77372 240.075 8.89935 240.039 9.01854C240.003 9.13774 239.942 9.2478 239.861 9.3414C239.78 9.43501 239.68 9.51005 239.567 9.56152C239.455 9.613 239.333 9.63975 239.21 9.64H235.61C235.393 9.64 235.184 9.55361 235.03 9.39983C234.876 9.24605 234.79 9.03748 234.79 8.82V6.77C234.79 6.53527 234.716 6.30657 234.578 6.11675C234.44 5.92693 234.245 5.78577 234.022 5.71354C233.798 5.64132 233.558 5.64175 233.335 5.71479C233.112 5.78782 232.917 5.92968 232.78 6.12C231.873 7.38667 232.02 8.43667 233.22 9.27C233.492 9.45727 233.693 9.73591 233.79 10.06C234.437 12.32 233.947 14.1133 232.32 15.44C232.19 15.5456 232.092 15.6857 232.039 15.8442C231.985 16.0027 231.977 16.1732 232.015 16.3362C232.054 16.4991 232.138 16.6478 232.257 16.7652C232.376 16.8827 232.526 16.964 232.69 17L234.15 17.31Z" fill="white"/>
<path d="M57 13C58.1733 15.34 58.49 18.3633 57.95 22.07C57.9231 22.247 57.844 22.4119 57.7229 22.5438C57.6018 22.6756 57.4441 22.7683 57.27 22.81C56.3367 23.0167 55.2133 23.0267 53.9 22.84C53.6191 22.7991 53.3623 22.6583 53.1768 22.4434C52.9913 22.2285 52.8894 21.9539 52.89 21.67V15.64C52.89 15.3377 52.7699 15.0477 52.5561 14.8339C52.3423 14.6201 52.0523 14.5 51.75 14.5H51.34C51.0933 14.5 50.8568 14.5969 50.6824 14.7695C50.508 14.942 50.41 15.176 50.41 15.42V22.21C50.41 22.4089 50.332 22.5997 50.1933 22.7403C50.0545 22.881 49.8663 22.96 49.67 22.96H45.92C45.7264 22.96 45.5407 22.8831 45.4038 22.7462C45.2669 22.6093 45.19 22.4236 45.19 22.23V2.59C45.1913 2.28555 45.2779 1.98756 45.4399 1.7298C45.602 1.47203 45.8329 1.26479 46.1067 1.13156C46.3804 0.998326 46.686 0.944425 46.9888 0.975963C47.2916 1.0075 47.5796 1.12322 47.82 1.31L48.54 1.87C48.7104 2.00201 48.9197 2.07442 49.1363 2.07622C49.3529 2.07803 49.5648 2.00913 49.74 1.88C50.8267 1.08 51.7667 1.11333 52.56 1.98C52.6434 2.07172 52.7458 2.14409 52.8601 2.19205C52.9744 2.24001 53.0978 2.26239 53.2216 2.25762C53.3455 2.25286 53.4668 2.22107 53.5771 2.16447C53.6874 2.10788 53.7839 2.02785 53.86 1.93L54.54 1.06C54.6245 0.953158 54.7434 0.878848 54.8764 0.849684C55.0095 0.82052 55.1486 0.838297 55.27 0.9C58.18 2.4 59.97 9.98 57.2 12.13C57.0699 12.232 56.9788 12.3746 56.9423 12.5335C56.9058 12.6923 56.9262 12.8573 57 13ZM53.0994 9.4118C53.2612 9.17547 53.2869 8.86013 53.1708 8.53514C53.0547 8.21016 52.8062 7.90216 52.4802 7.6789C52.3187 7.56835 52.1431 7.48193 51.9633 7.42458C51.7834 7.36723 51.603 7.34007 51.4321 7.34465C51.2613 7.34922 51.1035 7.38545 50.9677 7.45126C50.8319 7.51707 50.7207 7.61118 50.6406 7.7282C50.4788 7.96453 50.4531 8.27988 50.5692 8.60486C50.6853 8.92984 50.9337 9.23783 51.2598 9.4611C51.4212 9.57165 51.5969 9.65807 51.7767 9.71542C51.9565 9.77277 52.137 9.79993 52.3078 9.79535C52.4787 9.79078 52.6365 9.75455 52.7723 9.68874C52.9081 9.62293 53.0193 9.52882 53.0994 9.4118Z" fill="white"/>
<path d="M67.4 15.08C67.1267 14.6867 66.8667 14.43 66.62 14.31C66.4194 14.2071 66.1978 14.183 65.9896 14.2416C65.7814 14.3001 65.5982 14.4381 65.4683 14.634C65.3385 14.8299 65.2693 15.0728 65.2714 15.3252C65.2735 15.5776 65.3468 15.8253 65.48 16.03C65.72 16.4033 66.0833 16.5567 66.57 16.49C67.74 16.33 69.76 17.01 71.77 17.4C72.2407 17.4903 72.6663 17.7492 72.97 18.13C73.8033 19.2033 74.04 20.59 73.68 22.29C73.6432 22.4704 73.5445 22.6325 73.4006 22.7491C73.2567 22.8657 73.0763 22.9296 72.89 22.93H60.6C60.5121 22.9301 60.425 22.9123 60.3441 22.8778C60.2632 22.8433 60.1902 22.7927 60.1294 22.7291C60.0687 22.6656 60.0214 22.5903 59.9906 22.508C59.9597 22.4256 59.9459 22.3379 59.95 22.25C60.23 14.77 60.0633 8.30333 59.45 2.85C59.4278 2.66879 59.4468 2.48419 59.5056 2.30953C59.5644 2.13487 59.6615 1.9745 59.79 1.84C60.55 1.02 61.5267 0.963333 62.72 1.67C62.8932 1.77192 63.0877 1.83141 63.2877 1.84358C63.4876 1.85575 63.6872 1.82025 63.87 1.74L65.08 1.2C65.2843 1.10895 65.5053 1.06271 65.7279 1.06444C65.9505 1.06616 66.1695 1.11581 66.37 1.21C68.2167 2.09 70.06 2.00667 71.9 0.96C72.0311 0.884294 72.1799 0.844546 72.3313 0.844774C72.4827 0.845001 72.6314 0.885197 72.7623 0.961296C72.8932 1.0374 73.0016 1.1467 73.0768 1.27817C73.1519 1.40963 73.1909 1.5586 73.19 1.71V6.3C73.19 6.40637 73.169 6.5117 73.1283 6.60997C73.0876 6.70825 73.028 6.79754 72.9528 6.87276C72.8775 6.94797 72.7882 7.00764 72.69 7.04834C72.5917 7.08905 72.4864 7.11 72.38 7.11H66.32C66.0123 7.11 65.7173 7.23221 65.4998 7.44976C65.2822 7.6673 65.16 7.96235 65.16 8.27V8.87C65.16 8.96587 65.1789 9.06079 65.2156 9.14936C65.2523 9.23793 65.306 9.3184 65.3738 9.38619C65.4416 9.45397 65.5221 9.50775 65.6106 9.54443C65.6992 9.58112 65.7941 9.6 65.89 9.6H68.9C69.0758 9.59976 69.2464 9.65889 69.3844 9.76779C69.5223 9.87669 69.6194 10.029 69.66 10.2C70.16 12.3533 69.62 14.0167 68.04 15.19C67.99 15.2252 67.9337 15.2503 67.8743 15.2638C67.8148 15.2773 67.7536 15.279 67.694 15.2688C67.6344 15.2585 67.5777 15.2366 67.5272 15.2042C67.4767 15.1717 67.4335 15.1295 67.4 15.08Z" fill="white"/>
<path d="M112.84 2.35C112.835 2.21056 112.879 2.07377 112.965 1.96392C113.051 1.85408 113.173 1.77828 113.31 1.75L117.35 0.9C117.643 0.837754 117.949 0.894433 118.2 1.05758C118.451 1.22072 118.628 1.47697 118.69 1.77L122.91 21.94C122.934 22.0506 122.933 22.1651 122.907 22.2752C122.88 22.3853 122.83 22.4882 122.759 22.5763C122.688 22.6645 122.599 22.7357 122.497 22.7848C122.395 22.8339 122.283 22.8596 122.17 22.86H119.06C118.813 22.8583 118.574 22.772 118.383 22.6155C118.192 22.459 118.06 22.2418 118.01 22L117.67 20.4C117.63 20.2135 117.54 20.0418 117.409 19.9041C117.279 19.7664 117.113 19.668 116.93 19.62C115.59 19.24 114 19.22 113.66 21.14C113.347 22.9133 111.877 23.4433 109.25 22.73C109.117 22.6924 109.003 22.605 108.932 22.4859C108.861 22.3668 108.839 22.2251 108.87 22.09L112.78 5.04C112.886 4.59561 112.926 4.13746 112.9 3.68L112.84 2.35ZM116.985 14.2785C117.145 14.0344 117.171 13.7172 117.058 13.3967C116.945 13.0762 116.702 12.7787 116.382 12.5696C116.063 12.3605 115.693 12.2569 115.354 12.2817C115.015 12.3064 114.735 12.4574 114.575 12.7015C114.415 12.9456 114.389 13.2628 114.502 13.5833C114.615 13.9038 114.858 14.2013 115.178 14.4104C115.497 14.6195 115.867 14.7231 116.206 14.6983C116.545 14.6736 116.825 14.5226 116.985 14.2785Z" fill="white"/>
<path d="M149.17 12.12C149.04 12.222 148.949 12.3647 148.912 12.5235C148.876 12.6823 148.896 12.8473 148.97 12.99C150.143 15.3233 150.463 18.34 149.93 22.04C149.904 22.2157 149.826 22.3797 149.707 22.5114C149.588 22.6431 149.432 22.7365 149.26 22.78C148.327 22.9867 147.203 23 145.89 22.82C145.609 22.7791 145.352 22.6383 145.167 22.4234C144.981 22.2085 144.879 21.9339 144.88 21.65L144.87 15.63C144.867 15.3294 144.746 15.042 144.533 14.8304C144.319 14.6187 144.031 14.5 143.73 14.5H143.32C143.075 14.5026 142.841 14.6007 142.669 14.7729C142.497 14.9452 142.4 15.1777 142.4 15.42L142.41 22.2C142.41 22.2985 142.391 22.396 142.354 22.487C142.316 22.578 142.262 22.6607 142.193 22.7303C142.125 22.8 142.043 22.8552 141.953 22.8929C141.863 22.9306 141.767 22.95 141.67 22.95H137.93C137.738 22.95 137.554 22.8745 137.417 22.7397C137.281 22.605 137.203 22.4219 137.2 22.23L137.16 2.62C137.158 2.31549 137.242 2.01687 137.403 1.75835C137.564 1.49984 137.794 1.29188 138.069 1.15829C138.343 1.02471 138.65 0.970901 138.955 1.00304C139.259 1.03517 139.549 1.15195 139.79 1.34L140.5 1.89C140.669 2.02281 140.877 2.09571 141.094 2.09752C141.311 2.09932 141.524 2.02993 141.7 1.9C142.787 1.1 143.727 1.13333 144.52 2C144.604 2.09115 144.707 2.1628 144.822 2.20992C144.936 2.25704 145.06 2.27849 145.184 2.27278C145.308 2.26706 145.429 2.23431 145.539 2.17682C145.649 2.11934 145.745 2.0385 145.82 1.94L146.49 1.07C146.575 0.963158 146.693 0.888848 146.826 0.859684C146.959 0.83052 147.099 0.848298 147.22 0.91C150.13 2.41 151.93 9.97 149.17 12.12ZM145.153 9.4593C145.311 9.22679 145.323 8.90905 145.187 8.57599C145.051 8.24292 144.777 7.92182 144.426 7.6833C144.075 7.44479 143.675 7.30842 143.316 7.30418C142.956 7.29994 142.665 7.42819 142.507 7.6607C142.349 7.89321 142.337 8.21095 142.473 8.54401C142.609 8.87708 142.883 9.19818 143.234 9.4367C143.585 9.67521 143.985 9.81158 144.344 9.81582C144.704 9.82006 144.995 9.69181 145.153 9.4593Z" fill="white"/>
<path d="M155.17 2.37C155.165 2.23056 155.209 2.09377 155.295 1.98392C155.381 1.87408 155.503 1.79828 155.64 1.77L159.68 0.91C159.826 0.879306 159.976 0.87775 160.123 0.905421C160.269 0.933091 160.409 0.989443 160.533 1.07123C160.658 1.15302 160.765 1.25863 160.848 1.38199C160.932 1.50534 160.99 1.64401 161.02 1.79L165.25 21.93C165.274 22.0406 165.273 22.1551 165.247 22.2652C165.22 22.3753 165.17 22.4782 165.099 22.5663C165.028 22.6545 164.939 22.7257 164.837 22.7748C164.735 22.8239 164.623 22.8496 164.51 22.85H161.4C161.153 22.8488 160.914 22.7638 160.723 22.6092C160.532 22.4545 160.4 22.2395 160.35 22L160.02 20.39C159.98 20.2022 159.888 20.0297 159.755 19.8919C159.623 19.754 159.455 19.6564 159.27 19.61C157.93 19.24 156.35 19.22 156.01 21.14C155.697 22.9067 154.23 23.4333 151.61 22.72C151.477 22.6824 151.363 22.595 151.292 22.4759C151.221 22.3568 151.199 22.2151 151.23 22.08L155.11 5.06C155.217 4.61254 155.257 4.15094 155.23 3.69L155.17 2.37ZM159.353 13.6978C159.428 13.5775 159.471 13.4388 159.479 13.2896C159.488 13.1404 159.462 12.9836 159.402 12.8282C159.343 12.6728 159.251 12.5218 159.133 12.3838C159.014 12.2458 158.872 12.1236 158.712 12.0241C158.391 11.8231 158.022 11.7269 157.687 11.7565C157.352 11.7862 157.079 11.9393 156.927 12.1822C156.852 12.3025 156.809 12.4412 156.801 12.5904C156.792 12.7396 156.818 12.8964 156.878 13.0518C156.937 13.2072 157.029 13.3582 157.147 13.4962C157.266 13.6342 157.408 13.7564 157.568 13.8559C157.889 14.0569 158.258 14.1531 158.593 14.1235C158.928 14.0938 159.201 13.9407 159.353 13.6978Z" fill="white"/>
<path d="M205.77 15.19C205.72 15.2252 205.664 15.2503 205.604 15.2638C205.545 15.2773 205.484 15.279 205.424 15.2688C205.364 15.2585 205.308 15.2366 205.257 15.2042C205.207 15.1717 205.164 15.1295 205.13 15.08C204.857 14.6867 204.597 14.43 204.35 14.31C204.149 14.2071 203.928 14.183 203.72 14.2416C203.511 14.3001 203.328 14.4381 203.198 14.634C203.069 14.8299 202.999 15.0728 203.001 15.3252C203.003 15.5776 203.077 15.8253 203.21 16.03C203.45 16.4033 203.813 16.5567 204.3 16.49C205.47 16.33 207.49 17.01 209.5 17.4C209.971 17.4903 210.396 17.7492 210.7 18.13C211.533 19.2033 211.77 20.59 211.41 22.29C211.373 22.472 211.273 22.6354 211.127 22.7522C210.981 22.869 210.798 22.9319 210.61 22.93H198.32C198.231 22.9302 198.143 22.9121 198.062 22.877C197.98 22.8419 197.907 22.7904 197.846 22.7257C197.785 22.661 197.738 22.5846 197.708 22.501C197.677 22.4175 197.665 22.3287 197.67 22.24C197.957 14.76 197.793 8.29333 197.18 2.84C197.158 2.65819 197.178 2.47338 197.236 2.29877C197.295 2.12417 197.392 1.96409 197.52 1.83C198.28 1.01 199.257 0.953333 200.45 1.66C200.623 1.76192 200.818 1.82141 201.018 1.83358C201.218 1.84575 201.417 1.81025 201.6 1.73L202.81 1.19C203.014 1.09895 203.235 1.05271 203.458 1.05444C203.681 1.05616 203.9 1.10581 204.1 1.2C205.947 2.08 207.79 1.99667 209.63 0.95C209.761 0.874294 209.91 0.834546 210.061 0.834774C210.213 0.835001 210.361 0.875197 210.492 0.951297C210.623 1.0274 210.732 1.1367 210.807 1.26817C210.882 1.39963 210.921 1.5486 210.92 1.7V6.3C210.92 6.51483 210.835 6.72085 210.683 6.87276C210.531 7.02466 210.325 7.11 210.11 7.11L204.05 7.1C203.742 7.1 203.447 7.22221 203.23 7.43976C203.012 7.6573 202.89 7.95235 202.89 8.26V8.86C202.89 8.95586 202.909 9.05079 202.946 9.13936C202.982 9.22793 203.036 9.3084 203.104 9.37619C203.172 9.44398 203.252 9.49775 203.341 9.53443C203.429 9.57112 203.524 9.59 203.62 9.59H206.63C206.807 9.59028 206.979 9.65084 207.117 9.7617C207.255 9.87257 207.351 10.0271 207.39 10.2C207.89 12.3533 207.35 14.0167 205.77 15.19Z" fill="white"/>
<path d="M82.7 16.09C82.7595 16.0727 82.8132 16.0395 82.8552 15.9938C82.8972 15.9482 82.926 15.892 82.9383 15.8313C82.9507 15.7705 82.9462 15.7075 82.9253 15.6491C82.9045 15.5908 82.868 15.5392 82.82 15.5C82.76 15.4467 81.4467 15.0667 78.88 14.36C74.28 13.09 75.49 8.73 75.15 5.2C75.0993 4.68657 75.2001 4.16953 75.44 3.71279C75.68 3.25604 76.0485 2.8796 76.5 2.63L79.34 1.05C79.4839 0.971494 79.6497 0.933481 79.82 0.94L86.72 1.38C86.8114 1.38615 86.901 1.41148 86.9836 1.45447C87.0661 1.49745 87.1397 1.55718 87.2 1.63L89.64 4.65C89.7635 4.80156 89.8481 4.981 89.8864 5.17271C89.9248 5.36442 89.9157 5.5626 89.86 5.75C89.5667 6.71667 88.9533 7.63667 88.02 8.51C87.8952 8.62781 87.7336 8.6984 87.5636 8.70938C87.3935 8.72035 87.2258 8.671 87.09 8.57C86.0567 7.81667 84.64 7.25667 82.84 6.89C82.4969 6.82354 82.1426 6.8497 81.8138 6.96574C81.485 7.08179 81.1937 7.28352 80.97 7.55L80.9 7.64C80.8157 7.74059 80.7565 7.85981 80.7272 7.98764C80.698 8.11547 80.6996 8.24816 80.7319 8.37457C80.7643 8.50097 80.8264 8.6174 80.9131 8.71405C80.9997 8.8107 81.1084 8.88476 81.23 8.93C83.18 9.65 87.91 10.06 89.61 11.61C91.4833 13.3167 91.96 15.4967 91.04 18.15C88.68 24.99 79.55 23.57 75.23 19.84C75.1021 19.7323 75.0118 19.5862 74.9723 19.4227C74.9328 19.2592 74.946 19.0867 75.01 18.93C76.31 15.7033 78.39 14.7367 81.25 16.03C81.4767 16.13 81.8 16.17 82.22 16.15C82.4533 16.1367 82.6133 16.1167 82.7 16.09ZM85.26 16.06C85.2467 16.04 84.85 15.97 84.07 15.85C84.0419 15.8428 84.0122 15.8461 83.9864 15.8591C83.9605 15.8721 83.9402 15.894 83.9293 15.9208C83.9183 15.9476 83.9174 15.9775 83.9267 16.0049C83.936 16.0323 83.955 16.0554 83.98 16.07L84.67 16.54C84.7409 16.5857 84.8245 16.6079 84.9088 16.6032C84.9931 16.5986 85.0737 16.5674 85.1392 16.5141C85.2046 16.4608 85.2516 16.3882 85.2733 16.3067C85.295 16.2251 85.2903 16.1388 85.26 16.06Z" fill="white"/>
<path d="M107.44 8.48C107.41 8.53039 107.368 8.57316 107.319 8.60477C107.27 8.63639 107.214 8.65593 107.156 8.6618C107.099 8.66766 107.041 8.65967 106.987 8.63849C106.934 8.61731 106.887 8.58355 106.85 8.54C106.13 7.70667 105.037 7.39 103.57 7.59C103.401 7.61401 103.247 7.69795 103.135 7.82647C103.023 7.95499 102.961 8.11952 102.96 8.29L102.97 22.18C102.97 22.3471 102.904 22.5073 102.785 22.6255C102.667 22.7436 102.507 22.81 102.34 22.81L98.75 22.82C98.4954 22.82 98.2512 22.7189 98.0712 22.5388C97.8911 22.3588 97.79 22.1146 97.79 21.86L97.78 8.15C97.78 8.01739 97.7273 7.89021 97.6336 7.79645C97.5398 7.70268 97.4126 7.65 97.28 7.65H93.26C93.077 7.65 92.9015 7.5773 92.7721 7.4479C92.6427 7.3185 92.57 7.143 92.57 6.96V2.02C92.57 1.93602 92.5899 1.85324 92.6282 1.77848C92.6664 1.70372 92.7219 1.63912 92.79 1.59C93.99 0.65 95.21 2.29 96.42 1.52C97.5 0.833333 98.5533 0.946667 99.58 1.86C99.7119 1.97527 99.8797 2.04054 100.054 2.0442C100.228 2.04786 100.396 1.98968 100.53 1.88C102.5 0.28 103.74 2.06 105.86 2.07C108.69 2.07 108.25 7.04 107.44 8.48Z" fill="white"/>
<path d="M128.9 16.25C128.899 16.3188 128.915 16.3868 128.946 16.4482C128.978 16.5095 129.024 16.5625 129.08 16.6027C129.137 16.6429 129.203 16.669 129.273 16.679C129.342 16.689 129.413 16.6825 129.48 16.66C130.06 16.4533 130.673 16.5333 131.32 16.9C131.368 16.9274 131.422 16.9416 131.477 16.9412C131.532 16.9408 131.586 16.9258 131.635 16.8976C131.683 16.8695 131.724 16.8292 131.752 16.7805C131.781 16.7319 131.798 16.6766 131.8 16.62L131.9 3.2C131.903 2.92741 131.968 2.65911 132.091 2.41556C132.213 2.17202 132.39 1.95968 132.607 1.79472C132.824 1.62977 133.076 1.51657 133.343 1.46376C133.611 1.41095 133.887 1.41993 134.15 1.49H134.18C134.797 1.65232 135.343 2.01576 135.73 2.52286C136.118 3.02996 136.325 3.65178 136.32 4.29L136.2 19.27C136.193 19.9364 135.984 20.5847 135.6 21.128C135.216 21.6713 134.675 22.0837 134.05 22.31C132.403 22.91 130.377 23.0833 127.97 22.83C123.38 22.34 123.71 18.99 123.64 14.93C123.587 11.6033 123.577 7.52333 123.61 2.69C123.612 2.43587 123.67 2.18531 123.781 1.95657C123.892 1.72782 124.052 1.52663 124.25 1.36764C124.448 1.20865 124.68 1.09584 124.927 1.03744C125.174 0.979032 125.432 0.976491 125.68 1.03L126.83 1.27C127.417 1.39782 127.942 1.72244 128.318 2.18995C128.695 2.65745 128.9 3.23971 128.9 3.84V16.25Z" fill="white"/>
<path d="M171.48 15.76C171.455 15.6825 171.403 15.6172 171.334 15.5758C171.265 15.5344 171.183 15.5196 171.102 15.534C171.022 15.5484 170.948 15.5911 170.895 15.6545C170.841 15.7179 170.811 15.7978 170.81 15.88V21.91C170.81 22.0426 170.784 22.174 170.733 22.2965C170.682 22.4191 170.608 22.5304 170.514 22.6242C170.42 22.718 170.309 22.7924 170.187 22.8431C170.064 22.8939 169.933 22.92 169.8 22.92H167.4C167.045 22.92 166.704 22.7778 166.452 22.5246C166.201 22.2714 166.06 21.928 166.06 21.57V2.68C166.06 2.2477 166.232 1.8331 166.537 1.52742C166.843 1.22173 167.258 1.05 167.69 1.05H169.67C170.246 1.04925 170.803 1.25291 171.242 1.62468C171.682 1.99644 171.975 2.51218 172.07 3.08C172.363 4.82 172.84 6.06333 173.5 6.81C173.644 6.9723 173.744 7.16848 173.791 7.38013C173.839 7.59178 173.831 7.81196 173.77 8.02C173.457 9.10667 173.44 9.86 173.72 10.28C173.829 10.4432 173.988 10.5648 174.173 10.6272C174.357 10.6897 174.559 10.6898 174.748 10.6275C174.937 10.5653 175.103 10.4439 175.224 10.2808C175.345 10.1177 175.414 9.92136 175.42 9.72C175.433 9.02 175.143 8.26667 174.55 7.46C174.465 7.34385 174.406 7.21063 174.377 7.06922C174.347 6.92781 174.348 6.78148 174.38 6.64L175.28 2.43C175.325 2.22757 175.411 2.03662 175.533 1.86938C175.656 1.70213 175.811 1.56227 175.99 1.45874C176.169 1.3552 176.367 1.29028 176.572 1.26811C176.777 1.24594 176.984 1.26702 177.18 1.33C178.647 1.79667 179.387 2.76 179.4 4.22C179.44 11.18 179.453 17.2 179.44 22.28C179.437 22.4533 179.368 22.6186 179.246 22.7402C179.125 22.8618 178.961 22.93 178.79 22.93H174.87C174.63 22.9293 174.395 22.8541 174.198 22.7145C174.002 22.575 173.852 22.3779 173.77 22.15L171.48 15.76Z" fill="white"/>
<path d="M195.56 8.48C195.531 8.53103 195.49 8.57463 195.441 8.60718C195.392 8.63972 195.337 8.66027 195.279 8.66712C195.221 8.67396 195.163 8.66691 195.109 8.64654C195.056 8.62617 195.008 8.59307 194.97 8.55C194.25 7.71667 193.153 7.4 191.68 7.6C191.511 7.62401 191.357 7.70794 191.245 7.83647C191.133 7.96499 191.071 8.12952 191.07 8.3L191.09 22.2C191.09 22.3671 191.024 22.5273 190.905 22.6455C190.787 22.7636 190.627 22.83 190.46 22.83H186.87C186.617 22.83 186.374 22.7302 186.195 22.5524C186.015 22.3745 185.913 22.1329 185.91 21.88L185.89 8.16C185.89 8.02739 185.837 7.90021 185.744 7.80645C185.65 7.71268 185.523 7.66 185.39 7.66H181.37C181.189 7.66002 181.015 7.5887 180.886 7.46145C180.756 7.33421 180.683 7.16126 180.68 6.98L180.67 2.03C180.67 1.94602 180.69 1.86324 180.728 1.78848C180.766 1.71372 180.822 1.64912 180.89 1.6C182.1 0.66 183.32 2.3 184.53 1.53C185.61 0.836667 186.663 0.946667 187.69 1.86C187.822 1.97527 187.99 2.04054 188.164 2.0442C188.338 2.04786 188.506 1.98968 188.64 1.88C190.61 0.28 191.85 2.07 193.97 2.07C196.81 2.07 196.37 7.05 195.56 8.48Z" fill="white"/>
<path d="M26.71 10.74L26.76 13.29L13.83 16.27C13.25 15.4433 12.9767 14.61 13.01 13.77C13.0194 13.6146 13.0723 13.4653 13.1627 13.3396C13.253 13.2138 13.3769 13.1169 13.52 13.06C17.9867 11.2667 22.3833 10.4933 26.71 10.74Z" fill="#128F40"/>
<path d="M26.76 13.29C27.8333 13.5033 28.9067 13.76 29.98 14.06C31.2533 14.42 31.7967 15.1567 31.61 16.27C28.57 14.8033 24.89 14.7333 20.57 16.06C16.6767 17.26 12.7533 18.15 8.8 18.73C7.53333 18.6167 6.59 18.1567 5.97 17.35L13.83 16.27L26.76 13.29Z" fill="white"/>
<path d="M31.61 16.27C31.7433 18.3633 30.8067 19.9667 28.8 21.08C26.62 19.2133 24.1867 18.39 21.5 18.61C14.82 19.17 10.5867 19.4433 8.8 19.43V18.73C12.7533 18.15 16.6767 17.26 20.57 16.06C24.89 14.7333 28.57 14.8033 31.61 16.27Z" fill="#141617"/>
<path d="M28.8 21.08C30.4133 24.6467 30.13 27.58 27.95 29.88L24.57 33.12L20.76 31.63L17.85 31.15C17.7805 31.1394 17.7139 31.1146 17.6544 31.077C17.5949 31.0395 17.5439 30.9901 17.5044 30.9318C17.465 30.8736 17.438 30.8078 17.4252 30.7387C17.4124 30.6695 17.414 30.5985 17.43 30.53L17.64 29.54C17.652 29.4834 17.653 29.425 17.643 29.3683C17.6329 29.3115 17.6119 29.2574 17.5813 29.2091C17.5506 29.1608 17.5109 29.1192 17.4643 29.0868C17.4178 29.0543 17.3653 29.0316 17.31 29.02L16.96 28.95C16.8761 28.9326 16.7896 28.9324 16.7058 28.9496C16.6221 28.9668 16.543 29.0009 16.4734 29.0497C16.4039 29.0986 16.3455 29.1611 16.3019 29.2335C16.2582 29.3058 16.2304 29.3863 16.22 29.47C16.18 29.7967 16.2267 30.1433 16.36 30.51C16.3862 30.5827 16.397 30.6601 16.3918 30.7373C16.3866 30.8144 16.3655 30.8896 16.3298 30.9582C16.2941 31.0268 16.2446 31.0872 16.1844 31.1357C16.1242 31.1842 16.0546 31.2197 15.98 31.24C15.3667 31.4133 14.8233 31.2733 14.35 30.82C14.69 30.3067 14.8067 29.9 14.7 29.6C14.6551 29.4716 14.5775 29.3573 14.4748 29.2682C14.3721 29.1791 14.2478 29.1184 14.1144 29.0921C13.981 29.0658 13.8431 29.0749 13.7142 29.1184C13.5854 29.1618 13.4702 29.2383 13.38 29.34C12.9733 29.8 13.0533 30.3767 13.62 31.07C11.1333 31.9767 9.11333 31.1233 7.56 28.51C7.03333 27.9767 6.74666 27.12 6.7 25.94L6.79 25.46C7.04333 24.8467 7.46 24.69 8.04 24.99C11 26.52 12.7 28.11 15.9 27.82C16.3755 27.7752 16.8173 27.5558 17.139 27.2044C17.4608 26.8531 17.6394 26.3952 17.64 25.92V25.32C17.6397 25.0642 17.5861 24.8113 17.4825 24.5774C17.379 24.3435 17.2279 24.1338 17.0387 23.9616C16.8496 23.7894 16.6266 23.6585 16.3841 23.5773C16.1415 23.4961 15.8847 23.4664 15.63 23.49C12.8967 23.7567 10.2933 23.1467 7.82 21.66L7.71 20.96L8.8 19.43C10.5867 19.4433 14.82 19.17 21.5 18.61C24.1867 18.39 26.62 19.2133 28.8 21.08ZM15.46 21.4C15.46 21.0711 15.3294 20.7557 15.0968 20.5232C14.8643 20.2906 14.5489 20.16 14.22 20.16C13.8911 20.16 13.5757 20.2906 13.3432 20.5232C13.1106 20.7557 12.98 21.0711 12.98 21.4C12.98 21.7289 13.1106 22.0443 13.3432 22.2768C13.5757 22.5094 13.8911 22.64 14.22 22.64C14.5489 22.64 14.8643 22.5094 15.0968 22.2768C15.3294 22.0443 15.46 21.7289 15.46 21.4ZM20.24 21.96C20.24 21.6179 20.1041 21.2898 19.8622 21.0478C19.6202 20.8059 19.2921 20.67 18.95 20.67C18.6079 20.67 18.2798 20.8059 18.0378 21.0478C17.7959 21.2898 17.66 21.6179 17.66 21.96C17.66 22.3021 17.7959 22.6302 18.0378 22.8722C18.2798 23.1141 18.6079 23.25 18.95 23.25C19.2921 23.25 19.6202 23.1141 19.8622 22.8722C20.1041 22.6302 20.24 22.3021 20.24 21.96ZM10 28.55C10.1 28.21 9.98 27.8867 9.64 27.58C9.48662 27.4469 9.29173 27.3656 9.08653 27.3492C8.88134 27.3327 8.67771 27.382 8.50829 27.4892C8.33886 27.5964 8.21343 27.7553 8.15209 27.9404C8.09076 28.1254 8.09706 28.326 8.17 28.51C8.21 28.5967 8.66333 28.71 9.53 28.85C9.62999 28.8659 9.73261 28.8442 9.81897 28.7891C9.90533 28.734 9.96962 28.6491 10 28.55ZM10.33 29.55C10.4833 29.89 10.84 30.0733 11.4 30.1C11.5443 30.1092 11.6881 30.0715 11.8104 29.9923C11.9327 29.9132 12.0271 29.7968 12.08 29.66C12.2867 29.1133 12.19 28.7467 11.79 28.56C11.6029 28.4739 11.3894 28.4349 11.1783 28.4482C10.9673 28.4615 10.7688 28.5265 10.6096 28.6344C10.4505 28.7423 10.3384 28.8879 10.2884 29.0516C10.2384 29.2154 10.2529 29.3893 10.33 29.55ZM20.81 29.62C20.81 29.3866 20.7173 29.1628 20.5522 28.9977C20.3872 28.8327 20.1634 28.74 19.93 28.74C19.6966 28.74 19.4728 28.8327 19.3077 28.9977C19.1427 29.1628 19.05 29.3866 19.05 29.62C19.05 29.8534 19.1427 30.0772 19.3077 30.2423C19.4728 30.4073 19.6966 30.5 19.93 30.5C20.1634 30.5 20.3872 30.4073 20.5522 30.2423C20.7173 30.0772 20.81 29.8534 20.81 29.62Z" fill="white"/>
<path d="M14.22 22.64C14.9048 22.64 15.46 22.0848 15.46 21.4C15.46 20.7152 14.9048 20.16 14.22 20.16C13.5352 20.16 12.98 20.7152 12.98 21.4C12.98 22.0848 13.5352 22.64 14.22 22.64Z" fill="#141617"/>
<path d="M18.95 23.25C19.6624 23.25 20.24 22.6724 20.24 21.96C20.24 21.2476 19.6624 20.67 18.95 20.67C18.2375 20.67 17.66 21.2476 17.66 21.96C17.66 22.6724 18.2375 23.25 18.95 23.25Z" fill="#141617"/>
<path d="M7.71 20.96L7.82 21.66C7.36666 21.7867 6.91666 21.7933 6.47 21.68C7.02333 21.6333 7.43666 21.3933 7.71 20.96Z" fill="#141617"/>
<path d="M6.47 21.68C6.91666 21.7933 7.36666 21.7867 7.82 21.66C10.2933 23.1467 12.8967 23.7567 15.63 23.49C15.8847 23.4664 16.1415 23.4961 16.3841 23.5773C16.6266 23.6585 16.8496 23.7894 17.0387 23.9616C17.2279 24.1338 17.379 24.3435 17.4825 24.5774C17.5861 24.8113 17.6397 25.0642 17.64 25.32V25.92C17.6394 26.3952 17.4608 26.8531 17.139 27.2044C16.8173 27.5558 16.3755 27.7752 15.9 27.82C12.7 28.11 11 26.52 8.04 24.99C7.46 24.69 7.04333 24.8467 6.79 25.46C6.83666 25.14 6.75666 24.67 6.55 24.05L3.83 23.19C3.78188 23.1747 3.7387 23.1471 3.70444 23.11C3.67019 23.0728 3.64596 23.0272 3.634 22.9774C3.62204 22.9276 3.62273 22.8751 3.63602 22.8249C3.6493 22.7746 3.67474 22.7283 3.71 22.69C4.37666 22.0033 5.29666 21.6667 6.47 21.68Z" fill="#E67A17"/>
<path d="M6.79 25.46L6.7 25.94L6.55 24.05C6.75666 24.67 6.83666 25.14 6.79 25.46Z" fill="#141617"/>
<path d="M9.53 28.85C8.66333 28.71 8.21 28.5967 8.17 28.51C8.09706 28.326 8.09076 28.1254 8.15209 27.9404C8.21343 27.7553 8.33886 27.5964 8.50829 27.4892C8.67771 27.382 8.88134 27.3327 9.08653 27.3492C9.29173 27.3656 9.48662 27.4469 9.64 27.58C9.98 27.8867 10.1 28.21 10 28.55C9.96962 28.6491 9.90533 28.734 9.81897 28.7891C9.73261 28.8442 9.62999 28.8659 9.53 28.85Z" fill="#141617"/>
<path d="M10.33 29.55C10.2529 29.3893 10.2384 29.2154 10.2884 29.0516C10.3384 28.8879 10.4505 28.7423 10.6096 28.6344C10.7688 28.5265 10.9673 28.4615 11.1783 28.4482C11.3894 28.4349 11.6029 28.4739 11.79 28.56C12.19 28.7467 12.2867 29.1133 12.08 29.66C12.0271 29.7968 11.9327 29.9132 11.8104 29.9923C11.6881 30.0715 11.5443 30.1092 11.4 30.1C10.84 30.0733 10.4833 29.89 10.33 29.55Z" fill="#141617"/>
<path d="M13.62 31.07C14.1133 30.59 14.3567 30.5067 14.35 30.82C14.8233 31.2733 15.3667 31.4133 15.98 31.24C16.0546 31.2197 16.1242 31.1842 16.1844 31.1357C16.2446 31.0872 16.2941 31.0268 16.3298 30.9582C16.3655 30.8896 16.3866 30.8144 16.3918 30.7373C16.397 30.6601 16.3862 30.5827 16.36 30.51C16.2267 30.1433 16.18 29.7967 16.22 29.47C16.2304 29.3863 16.2582 29.3058 16.3019 29.2335C16.3455 29.1611 16.4039 29.0986 16.4734 29.0497C16.543 29.0009 16.6221 28.9668 16.7058 28.9496C16.7896 28.9324 16.8761 28.9326 16.96 28.95L17.31 29.02C17.3653 29.0316 17.4178 29.0543 17.4643 29.0868C17.5109 29.1192 17.5506 29.1608 17.5813 29.2091C17.6119 29.2574 17.6329 29.3115 17.643 29.3683C17.653 29.425 17.652 29.4834 17.64 29.54L17.43 30.53C17.414 30.5985 17.4124 30.6695 17.4252 30.7387C17.438 30.8078 17.465 30.8736 17.5044 30.9318C17.5439 30.9901 17.5949 31.0395 17.6544 31.077C17.7139 31.1146 17.7805 31.1394 17.85 31.15L20.76 31.63L23.02 33.31C23.0859 33.3602 23.1409 33.4233 23.1815 33.4953C23.2221 33.5674 23.2474 33.6468 23.2559 33.7285C23.2643 33.8102 23.2557 33.8925 23.2306 33.9702C23.2055 34.048 23.1644 34.1194 23.11 34.18L20.52 37.03C20.496 37.0567 20.4796 37.0893 20.4726 37.1245C20.4655 37.1597 20.4681 37.1961 20.48 37.23C20.5074 37.2632 20.5464 37.2847 20.5891 37.2903C20.6318 37.2959 20.675 37.285 20.71 37.26C22.29 36.1533 23.5767 34.7733 24.57 33.12L27.95 29.88C29.29 31.6867 29.9433 33.5 29.91 35.32C29.9036 35.5843 29.9868 35.8433 30.1464 36.0554C30.306 36.2676 30.5326 36.4206 30.79 36.49C34.5833 37.4833 38.1633 39.54 41.53 42.66C40.4833 44.9467 38.7233 46.9933 36.25 48.8C35.39 47.74 34.7367 47.46 34.29 47.96C34.7033 43.88 33.4967 40.3567 30.67 37.39C30.4727 37.1832 30.2027 37.0613 29.9171 37.0501C29.6316 37.0389 29.3528 37.1393 29.14 37.33C26.41 39.73 23 41.47 19.44 39.62C19.152 39.4693 18.8244 39.3969 18.49 39.41C13.57 39.59 9.21 40.1 6.24 36.17C6.35333 35.7833 6.30333 35.3967 6.09 35.01L7.56 28.51C9.11333 31.1233 11.1333 31.9767 13.62 31.07Z" fill="#128F40"/>
<path d="M19.93 30.5C20.416 30.5 20.81 30.106 20.81 29.62C20.81 29.134 20.416 28.74 19.93 28.74C19.444 28.74 19.05 29.134 19.05 29.62C19.05 30.106 19.444 30.5 19.93 30.5Z" fill="#141617"/>
<path d="M14.35 30.82C14.3567 30.5067 14.1133 30.59 13.62 31.07C13.0533 30.3767 12.9733 29.8 13.38 29.34C13.4702 29.2383 13.5854 29.1618 13.7142 29.1184C13.8431 29.0749 13.981 29.0658 14.1144 29.0921C14.2478 29.1184 14.3721 29.1791 14.4748 29.2682C14.5775 29.3573 14.6551 29.4716 14.7 29.6C14.8067 29.9 14.69 30.3067 14.35 30.82Z" fill="#141617"/>
<path d="M89.48 42.85C89.3523 42.9514 89.2628 43.0922 89.2263 43.2489C89.1899 43.4055 89.2089 43.5683 89.28 43.71C90.4467 46.0367 90.7633 49.0467 90.23 52.74C90.2026 52.9157 90.1231 53.0791 90.0019 53.2092C89.8807 53.3393 89.7233 53.4302 89.55 53.47C88.6233 53.6767 87.5067 53.6867 86.2 53.5C85.9208 53.4594 85.6653 53.32 85.48 53.1072C85.2947 52.8943 85.1918 52.6222 85.19 52.34V46.34C85.1913 46.1908 85.1631 46.0427 85.1069 45.9045C85.0507 45.7662 84.9676 45.6405 84.8626 45.5345C84.7575 45.4285 84.6325 45.3444 84.4948 45.287C84.357 45.2296 84.2092 45.2 84.06 45.2H83.65C83.5279 45.2 83.4069 45.2238 83.2941 45.27C83.1813 45.3163 83.0788 45.384 82.9924 45.4695C82.906 45.5549 82.8375 45.6563 82.7908 45.7679C82.7441 45.8796 82.72 45.9992 82.72 46.12V52.87C82.72 53.0672 82.6434 53.2564 82.5068 53.3968C82.3702 53.5371 82.1845 53.6173 81.99 53.62H78.26C78.0664 53.62 77.8807 53.5431 77.7438 53.4062C77.6069 53.2693 77.53 53.0836 77.53 52.89V33.35C77.5308 33.0465 77.6169 32.7494 77.7784 32.4925C77.9399 32.2355 78.1703 32.0291 78.4434 31.8967C78.7164 31.7644 79.0212 31.7114 79.3229 31.7438C79.6247 31.7762 79.9113 31.8927 80.15 32.08L80.87 32.64C81.0388 32.7712 81.2464 32.8432 81.4613 32.845C81.6761 32.8468 81.8864 32.7783 82.06 32.65C83.14 31.85 84.0767 31.8833 84.87 32.75C84.9524 32.8415 85.054 32.9138 85.1675 32.9617C85.281 33.0096 85.4036 33.032 85.5267 33.0272C85.6498 33.0225 85.7704 32.9907 85.8798 32.9341C85.9892 32.8776 86.0849 32.7976 86.16 32.7L86.84 31.83C86.9248 31.7244 87.0427 31.6509 87.1738 31.6217C87.3049 31.5926 87.4413 31.6096 87.56 31.67C90.46 33.17 92.24 40.71 89.48 42.85ZM85.271 40.1339C85.3522 40.0176 85.402 39.8811 85.4176 39.7322C85.4332 39.5833 85.4143 39.425 85.362 39.2662C85.3098 39.1075 85.2251 38.9514 85.1128 38.8069C85.0006 38.6624 84.863 38.5324 84.7079 38.4242C84.3947 38.2057 84.0292 38.0895 83.6918 38.1011C83.3545 38.1127 83.0729 38.2512 82.909 38.4861C82.8278 38.6024 82.778 38.7389 82.7624 38.8878C82.7468 39.0367 82.7657 39.195 82.818 39.3538C82.8702 39.5125 82.9549 39.6686 83.0672 39.8131C83.1794 39.9576 83.317 40.0876 83.4721 40.1958C83.7853 40.4143 84.1508 40.5305 84.4882 40.5189C84.8255 40.5073 85.1071 40.3688 85.271 40.1339Z" fill="white"/>
<path d="M165.79 42.84C165.662 42.9433 165.572 43.0866 165.538 43.2453C165.503 43.4041 165.525 43.5684 165.6 43.71C166.767 46.0367 167.083 49.0433 166.55 52.73C166.525 52.9062 166.448 53.0709 166.329 53.2028C166.209 53.3347 166.053 53.4278 165.88 53.47C164.953 53.6767 163.837 53.6867 162.53 53.5C162.251 53.4594 161.995 53.32 161.81 53.1072C161.625 52.8943 161.522 52.6222 161.52 52.34L161.51 46.34C161.51 46.1908 161.48 46.043 161.423 45.9052C161.366 45.7675 161.281 45.6425 161.176 45.5374C161.07 45.4324 160.944 45.3493 160.806 45.2931C160.667 45.2369 160.519 45.2087 160.37 45.21H159.97C159.723 45.21 159.487 45.3069 159.312 45.4795C159.138 45.652 159.04 45.886 159.04 46.13L159.05 52.88C159.05 53.0772 158.973 53.2664 158.837 53.4068C158.7 53.5472 158.515 53.6273 158.32 53.63H154.59C154.398 53.63 154.214 53.5545 154.077 53.4197C153.941 53.285 153.863 53.1019 153.86 52.91L153.83 33.37C153.83 33.0674 153.916 32.771 154.076 32.5143C154.236 32.2577 154.465 32.051 154.737 31.9178C155.008 31.7846 155.312 31.7301 155.613 31.7605C155.914 31.791 156.2 31.9051 156.44 32.09L157.16 32.65C157.33 32.7836 157.539 32.857 157.756 32.8588C157.973 32.8606 158.185 32.7907 158.36 32.66C159.44 31.86 160.373 31.89 161.16 32.75C161.242 32.8415 161.344 32.9138 161.457 32.9617C161.571 33.0096 161.694 33.032 161.817 33.0272C161.94 33.0225 162.06 32.9907 162.17 32.9341C162.279 32.8776 162.375 32.7976 162.45 32.7L163.13 31.83C163.215 31.722 163.335 31.6469 163.468 31.6177C163.602 31.5885 163.74 31.607 163.86 31.67C166.75 33.16 168.55 40.7 165.79 42.84ZM161.762 39.9757C161.828 39.8488 161.86 39.7055 161.855 39.5538C161.85 39.4022 161.809 39.2452 161.735 39.0918C161.66 38.9384 161.552 38.7917 161.419 38.6599C161.285 38.5282 161.127 38.414 160.955 38.324C160.783 38.234 160.599 38.1698 160.415 38.1351C160.23 38.1005 160.048 38.096 159.88 38.1221C159.711 38.1481 159.559 38.2041 159.431 38.2868C159.304 38.3696 159.205 38.4774 159.138 38.6043C159.072 38.7312 159.04 38.8745 159.045 39.0262C159.05 39.1778 159.091 39.3348 159.165 39.4882C159.24 39.6416 159.348 39.7883 159.481 39.9201C159.615 40.0518 159.773 40.166 159.945 40.256C160.117 40.346 160.301 40.4102 160.485 40.4449C160.67 40.4795 160.852 40.484 161.02 40.4579C161.189 40.4319 161.341 40.3759 161.469 40.2932C161.596 40.2104 161.695 40.1026 161.762 39.9757Z" fill="white"/>
<path d="M179.23 32.47L183.26 31.62C183.404 31.5893 183.554 31.5874 183.699 31.6146C183.844 31.6418 183.982 31.6974 184.106 31.7782C184.23 31.8591 184.336 31.9636 184.419 32.0858C184.502 32.2079 184.56 32.3453 184.59 32.49L188.8 52.59C188.822 52.6999 188.82 52.8133 188.793 52.9222C188.766 53.031 188.715 53.1325 188.645 53.2195C188.574 53.3065 188.485 53.3767 188.384 53.4252C188.283 53.4737 188.172 53.4993 188.06 53.5H184.96C184.714 53.5007 184.475 53.4165 184.284 53.2617C184.093 53.1068 183.961 52.8908 183.91 52.65L183.58 51.05C183.542 50.864 183.452 50.6924 183.321 50.5546C183.19 50.4168 183.024 50.3182 182.84 50.27C181.5 49.9 179.92 49.88 179.58 51.79C179.267 53.5567 177.803 54.0833 175.19 53.37C175.055 53.332 174.94 53.2439 174.869 53.1245C174.798 53.0051 174.777 52.8636 174.81 52.73L178.7 35.75C178.806 35.3057 178.847 34.8475 178.82 34.39L178.76 33.07C178.755 32.9306 178.799 32.7938 178.885 32.6839C178.971 32.5741 179.093 32.4983 179.23 32.47ZM181.17 45.19C181.16 45.2664 181.169 45.3439 181.197 45.4162C181.224 45.4885 181.27 45.5536 181.329 45.6062C181.389 45.6588 181.46 45.6974 181.539 45.7189C181.617 45.7404 181.7 45.7442 181.78 45.73C182.007 45.69 182.11 45.5333 182.09 45.26C182.083 45.1665 182.057 45.0746 182.014 44.9923C181.97 44.9099 181.911 44.8396 181.841 44.7874C181.771 44.7352 181.693 44.7027 181.612 44.6927C181.532 44.6827 181.452 44.6955 181.38 44.73C181.273 44.7833 181.203 44.9367 181.17 45.19Z" fill="white"/>
<path d="M224.01 52.81C224.01 53.0116 223.931 53.2049 223.79 53.3474C223.65 53.4899 223.459 53.57 223.26 53.57H219.19C219.02 53.57 218.857 53.5026 218.737 53.3825C218.617 53.2625 218.55 53.0997 218.55 52.93L218.59 34.58C218.591 34.2382 218.665 33.9006 218.808 33.59C218.95 33.2795 219.158 33.0033 219.417 32.7804C219.676 32.5574 219.98 32.3928 220.309 32.2978C220.637 32.2029 220.982 32.1797 221.32 32.23C221.933 32.3167 222.79 32.1433 223.89 31.71C224.032 31.6536 224.184 31.628 224.338 31.6349C224.491 31.6418 224.642 31.681 224.78 31.75C225.227 31.99 225.573 32.2867 225.82 32.64C225.95 32.827 226.141 32.9625 226.36 33.0228C226.579 33.0831 226.813 33.0644 227.02 32.97C228.427 32.31 229.33 32.23 229.73 32.73C231.68 35.14 232.43 38.69 231.86 41.79C231.16 45.51 227.53 45.15 224.72 44.93C224.63 44.9216 224.539 44.9322 224.453 44.9611C224.367 44.99 224.288 45.0366 224.221 45.0978C224.154 45.159 224.101 45.2335 224.065 45.3166C224.028 45.3996 224.01 45.4894 224.01 45.58V52.81ZM226.613 39.4965C226.753 39.2805 226.751 38.9852 226.607 38.6756C226.463 38.366 226.19 38.0675 225.847 37.8456C225.504 37.6237 225.12 37.4968 224.778 37.4926C224.437 37.4885 224.167 37.6075 224.027 37.8235C223.887 38.0395 223.889 38.3348 224.033 38.6444C224.177 38.954 224.45 39.2525 224.793 39.4744C225.136 39.6963 225.52 39.8232 225.862 39.8274C226.203 39.8315 226.473 39.7125 226.613 39.4965Z" fill="white"/>
<path d="M251.16 45.11V53.1C251.16 53.2326 251.108 53.3598 251.016 53.4536C250.925 53.5473 250.8 53.6 250.67 53.6H247.14C247.015 53.6 246.896 53.5505 246.808 53.4623C246.72 53.3742 246.67 53.2547 246.67 53.13L246.51 33.69C246.507 33.3475 246.594 33.0104 246.762 32.712C246.931 32.4137 247.174 32.1646 247.468 31.9896C247.763 31.8146 248.098 31.7198 248.44 31.7146C248.783 31.7094 249.12 31.794 249.42 31.96C249.44 31.9667 249.753 32.3567 250.36 33.13C250.416 33.1985 250.487 33.2529 250.567 33.2887C250.647 33.3245 250.735 33.3406 250.822 33.3357C250.909 33.3308 250.994 33.305 251.068 33.2605C251.143 33.216 251.205 33.1541 251.25 33.08C251.983 31.8867 252.9 31.47 254 31.83C254.144 31.8777 254.271 31.967 254.364 32.0865C254.457 32.2059 254.511 32.35 254.52 32.5L254.75 36.57C254.75 36.5896 254.757 36.6086 254.77 36.6233C254.783 36.6381 254.801 36.6476 254.82 36.65L255.15 36.72C255.224 36.7365 255.302 36.7253 255.368 36.6884C255.434 36.6516 255.485 36.5916 255.51 36.52L256.95 32.47C257.013 32.2862 257.115 32.118 257.249 31.9764C257.382 31.8348 257.545 31.7231 257.725 31.6485C257.905 31.5739 258.1 31.5381 258.295 31.5436C258.491 31.549 258.683 31.5955 258.86 31.68C260.3 32.3733 261.447 32.59 262.3 32.33C262.502 32.2673 262.716 32.253 262.925 32.2882C263.133 32.3234 263.331 32.4072 263.501 32.5327C263.671 32.6582 263.81 32.8221 263.905 33.0109C264 33.1998 264.05 33.4084 264.05 33.62L264.11 52.94C264.11 52.9978 264.099 53.055 264.077 53.1084C264.054 53.1618 264.022 53.2103 263.981 53.2511C263.94 53.292 263.892 53.3244 263.838 53.3465C263.785 53.3686 263.728 53.38 263.67 53.38H259.32C259.259 53.38 259.198 53.3678 259.142 53.3441C259.085 53.3203 259.034 53.2855 258.991 53.2418C258.948 53.198 258.915 53.1461 258.892 53.0891C258.87 53.0321 258.859 52.9712 258.86 52.91L259.09 44.74C259.09 44.7072 259.078 44.6756 259.056 44.6514C259.033 44.6273 259.003 44.6125 258.97 44.61L258.73 44.58C258.724 44.5788 258.717 44.5792 258.71 44.581C258.704 44.5829 258.698 44.5862 258.692 44.5909C258.686 44.5955 258.682 44.6014 258.678 44.6081C258.674 44.6148 258.671 44.6222 258.67 44.63L257.06 52.74C257.016 52.976 256.89 53.1891 256.703 53.3425C256.517 53.4959 256.282 53.5799 256.04 53.58H253.9C253.702 53.5798 253.51 53.512 253.357 53.3881C253.204 53.2642 253.099 53.0918 253.06 52.9L251.42 45.08C251.416 45.0455 251.399 45.014 251.371 44.9925C251.344 44.9709 251.309 44.961 251.275 44.965C251.241 44.969 251.209 44.9865 251.187 45.0137C251.166 45.0409 251.156 45.0755 251.16 45.11Z" fill="white"/>
<path d="M300 34.5V53.43L295.17 53.46C295.098 53.4613 295.027 53.4483 294.96 53.4218C294.894 53.3953 294.833 53.3557 294.782 53.3054C294.73 53.2551 294.69 53.1952 294.662 53.129C294.634 53.0628 294.62 52.9918 294.62 52.92V33.58C294.62 33.3266 294.67 33.0756 294.767 32.8414C294.864 32.6073 295.006 32.3945 295.185 32.2153C295.364 32.0361 295.577 31.8939 295.811 31.7969C296.046 31.6999 296.297 31.65 296.55 31.65H298.99C299.159 31.651 299.323 31.7134 299.449 31.8255C299.576 31.9377 299.658 32.0921 299.68 32.26L300 34.5Z" fill="white"/>
<path d="M20.76 31.63L24.57 33.12C23.5767 34.7733 22.29 36.1533 20.71 37.26C20.675 37.285 20.6318 37.2959 20.5891 37.2903C20.5464 37.2847 20.5074 37.2632 20.48 37.23C20.4681 37.1961 20.4655 37.1597 20.4726 37.1245C20.4796 37.0893 20.496 37.0567 20.52 37.03L23.11 34.18C23.1644 34.1194 23.2055 34.048 23.2306 33.9702C23.2557 33.8925 23.2643 33.8102 23.2559 33.7285C23.2474 33.6468 23.2221 33.5674 23.1815 33.4953C23.1409 33.4233 23.0859 33.3602 23.02 33.31L20.76 31.63Z" fill="#141617"/>
<path d="M55.58 47.32C55.6249 47.335 55.673 47.3379 55.7195 47.3284C55.7659 47.3189 55.809 47.2974 55.8444 47.266C55.8799 47.2346 55.9065 47.1944 55.9215 47.1495C55.9365 47.1045 55.9394 47.0564 55.93 47.01L55.92 46.98C55.9254 46.9195 55.9068 46.8591 55.8678 46.8108C55.8288 46.7626 55.7724 46.7301 55.71 46.72C53.9233 46.42 51.7333 45.8733 49.14 45.08C44.81 43.75 45.91 39.56 45.58 35.69C45.5439 35.2708 45.6269 34.8497 45.8197 34.4747C46.0125 34.0998 46.3071 33.7863 46.67 33.57L49.25 32.02C49.6149 31.7986 50.0405 31.6939 50.47 31.72L56.85 32.1C57.0386 32.1093 57.2228 32.1588 57.3901 32.245C57.5575 32.3313 57.7041 32.4523 57.82 32.6L60.27 35.67C60.3492 35.7672 60.4011 35.8841 60.4204 36.0088C60.4398 36.1335 60.4258 36.2616 60.38 36.38C59.88 37.6467 59.2533 38.5733 58.5 39.16C58.3468 39.2802 58.162 39.3514 57.9706 39.3639C57.7792 39.3764 57.5905 39.3297 57.43 39.23C55.75 38.2 53.71 37.22 51.77 37.93C51.5843 38.0002 51.4249 38.1264 51.3138 38.291C51.2027 38.4556 51.1454 38.6506 51.1498 38.8491C51.1542 39.0477 51.22 39.24 51.3383 39.3995C51.4565 39.5591 51.6213 39.678 51.81 39.74C53.85 40.4 58.77 40.82 60.28 42.5C61.6667 44.0467 62.1767 45.7567 61.81 47.63C60.24 55.72 50.53 54.66 45.6 50.56C45.4751 50.4547 45.3865 50.3136 45.347 50.1572C45.3074 50.0008 45.319 49.8372 45.38 49.69C46.37 47.32 48.47 45.27 51.12 46.51C51.8933 46.8767 52.6733 46.96 53.46 46.76C53.6819 46.7079 53.9147 46.7218 54.13 46.8L55.58 47.32Z" fill="white"/>
<path d="M63.04 35.62C63.046 35.062 63.2415 34.5229 63.5943 34.0919C63.9471 33.6609 64.436 33.3639 64.98 33.25L71.97 31.79C72.5173 31.6754 73.0876 31.7659 73.5724 32.0443C74.0573 32.3227 74.423 32.7696 74.6 33.3C76.0933 37.76 76.6667 42.5867 76.32 47.78C76.1933 49.6867 75.4633 51.2367 74.13 52.43C73.879 52.6546 73.5904 52.8277 73.28 52.94C70.03 54.12 63.82 54.04 63.18 49.61C62.51 45.03 63.01 40.38 63.04 35.62ZM70.7577 37.9282C70.7557 37.7426 70.6801 37.5653 70.5475 37.4354C70.4148 37.3055 70.236 37.2337 70.0504 37.2356L69.1504 37.245C68.9648 37.247 68.7875 37.3226 68.6576 37.4552C68.5277 37.5879 68.4559 37.7667 68.4578 37.9523L68.5623 47.9318C68.5643 48.1174 68.6399 48.2947 68.7725 48.4246C68.9052 48.5545 69.084 48.6263 69.2696 48.6244L70.1696 48.615C70.3552 48.613 70.5325 48.5374 70.6624 48.4048C70.7923 48.2721 70.8641 48.0933 70.8622 47.9077L70.7577 37.9282Z" fill="white"/>
<path d="M101.72 31.87L105.35 32.65C105.413 32.6644 105.468 32.7026 105.503 32.7567C105.539 32.8108 105.552 32.8765 105.54 32.94L101.21 53.02C101.174 53.1844 101.081 53.3315 100.949 53.4369C100.816 53.5424 100.651 53.5999 100.48 53.6H96.12C95.9416 53.5996 95.7684 53.5382 95.6286 53.4256C95.4888 53.313 95.3906 53.156 95.35 52.98L91.31 33.66C91.2572 33.4119 91.2677 33.1545 91.3406 32.9115C91.4135 32.6684 91.5465 32.4474 91.7274 32.2685C91.9083 32.0895 92.1315 31.9584 92.3764 31.8871C92.6214 31.8157 92.8805 31.8064 93.13 31.86L95.2 32.3C95.6498 32.3979 96.0618 32.6236 96.3865 32.95C96.7111 33.2764 96.9346 33.6896 97.03 34.14L97.9 38.3C97.9327 38.4558 98.0172 38.5966 98.14 38.7L98.82 39.22C98.8961 39.2775 98.9854 39.3151 99.0797 39.3291C99.1741 39.3432 99.2705 39.3333 99.36 39.3005C99.4496 39.2677 99.5295 39.2129 99.5924 39.1412C99.6552 39.0694 99.6991 38.9831 99.72 38.89L101.15 32.23C101.163 32.1693 101.188 32.1119 101.223 32.0609C101.259 32.0099 101.305 31.9664 101.358 31.933C101.411 31.8995 101.47 31.8767 101.532 31.8659C101.594 31.8551 101.658 31.8565 101.72 31.87Z" fill="white"/>
<path d="M114.86 45.89C114.81 45.9252 114.754 45.9503 114.694 45.9638C114.635 45.9773 114.574 45.979 114.514 45.9688C114.454 45.9585 114.398 45.9366 114.347 45.9041C114.297 45.8717 114.253 45.8295 114.22 45.78C113.953 45.3867 113.697 45.13 113.45 45.01C113.249 44.9071 113.028 44.883 112.82 44.9416C112.611 45.0001 112.428 45.1381 112.298 45.334C112.168 45.5299 112.099 45.7728 112.101 46.0252C112.103 46.2776 112.177 46.5253 112.31 46.73C112.543 47.1033 112.903 47.2567 113.39 47.19C114.56 47.03 116.58 47.71 118.59 48.1C119.058 48.1925 119.48 48.4513 119.78 48.83C120.613 49.9033 120.85 51.29 120.49 52.99C120.453 53.1704 120.354 53.3325 120.211 53.4491C120.067 53.5657 119.886 53.6296 119.7 53.63L107.43 53.62C107.342 53.6201 107.255 53.6023 107.174 53.5678C107.093 53.5333 107.02 53.4827 106.959 53.4191C106.899 53.3556 106.851 53.2803 106.821 53.198C106.79 53.1156 106.776 53.0278 106.78 52.94C107.067 45.4667 106.907 39.0067 106.3 33.56C106.279 33.3804 106.299 33.1977 106.358 33.0249C106.417 32.852 106.513 32.6934 106.64 32.56C107.4 31.74 108.373 31.6833 109.56 32.39C109.734 32.4924 109.929 32.5521 110.129 32.5643C110.329 32.5764 110.528 32.5407 110.71 32.46L111.92 31.92C112.124 31.829 112.345 31.7827 112.568 31.7844C112.79 31.7862 113.009 31.8358 113.21 31.93C115.05 32.81 116.89 32.73 118.73 31.69C118.861 31.6143 119.01 31.5745 119.161 31.5748C119.313 31.575 119.461 31.6152 119.592 31.6913C119.723 31.7674 119.832 31.8767 119.907 32.0082C119.982 32.1396 120.021 32.2886 120.02 32.44L120.01 37.02C120.01 37.2348 119.925 37.4409 119.773 37.5928C119.621 37.7447 119.415 37.83 119.2 37.83L113.15 37.82C112.842 37.82 112.547 37.9422 112.33 38.1598C112.112 38.3773 111.99 38.6723 111.99 38.98V39.58C111.99 39.7736 112.067 39.9593 112.204 40.0962C112.341 40.2331 112.526 40.31 112.72 40.31H115.73C115.904 40.312 116.072 40.3721 116.208 40.4809C116.344 40.5896 116.44 40.7407 116.48 40.91C116.98 43.0633 116.44 44.7233 114.86 45.89Z" fill="white"/>
<path d="M136.14 39.29C135.42 38.4567 134.323 38.14 132.85 38.34C132.681 38.364 132.527 38.4479 132.415 38.5765C132.303 38.705 132.241 38.8695 132.24 39.04V52.95C132.24 53.1171 132.174 53.2773 132.055 53.3955C131.937 53.5136 131.777 53.58 131.61 53.58H128.01C127.755 53.58 127.511 53.4789 127.331 53.2988C127.151 53.1188 127.05 52.8746 127.05 52.62V38.89C127.05 38.7574 126.997 38.6302 126.904 38.5364C126.81 38.4427 126.683 38.39 126.55 38.39H122.53C122.347 38.39 122.171 38.3173 122.042 38.1879C121.913 38.0585 121.84 37.883 121.84 37.7V32.75C121.84 32.666 121.86 32.5832 121.898 32.5085C121.936 32.4337 121.992 32.3691 122.06 32.32C123.27 31.38 124.49 33.02 125.7 32.25C126.78 31.5633 127.833 31.6767 128.86 32.59C128.992 32.7053 129.16 32.7705 129.334 32.7742C129.508 32.7779 129.676 32.7197 129.81 32.61C131.79 31.01 133.03 32.8 135.15 32.81C137.99 32.81 137.54 37.79 136.73 39.23C136.7 39.2804 136.658 39.3232 136.609 39.3548C136.56 39.3864 136.504 39.4059 136.446 39.4118C136.389 39.4177 136.331 39.4097 136.277 39.3885C136.224 39.3673 136.177 39.3336 136.14 39.29Z" fill="white"/>
<path d="M146.93 45.9C146.88 45.9352 146.824 45.9603 146.764 45.9738C146.705 45.9873 146.644 45.989 146.584 45.9788C146.524 45.9685 146.468 45.9466 146.417 45.9141C146.367 45.8817 146.323 45.8395 146.29 45.79C146.017 45.3967 145.76 45.14 145.52 45.02C145.321 44.9205 145.101 44.8985 144.895 44.9574C144.69 45.0163 144.508 45.1529 144.379 45.3463C144.25 45.5398 144.181 45.7797 144.181 46.0294C144.181 46.2791 144.251 46.5251 144.38 46.73C144.62 47.1033 144.98 47.2567 145.46 47.19C146.63 47.03 148.64 47.71 150.65 48.1C151.118 48.1925 151.54 48.4513 151.84 48.83C152.673 49.9033 152.91 51.2867 152.55 52.98C152.513 53.1604 152.414 53.3225 152.271 53.4391C152.127 53.5557 151.946 53.6196 151.76 53.62L139.5 53.61C139.413 53.6088 139.327 53.59 139.247 53.5549C139.168 53.5198 139.096 53.469 139.036 53.4056C138.976 53.3421 138.93 53.2673 138.9 53.1856C138.869 53.104 138.856 53.017 138.86 52.93C139.147 45.47 138.987 39.02 138.38 33.58C138.358 33.3988 138.377 33.2142 138.436 33.0395C138.494 32.8649 138.592 32.7045 138.72 32.57C139.48 31.7567 140.453 31.7033 141.64 32.41C141.814 32.5124 142.009 32.5721 142.209 32.5843C142.409 32.5965 142.608 32.5607 142.79 32.48L143.99 31.94C144.194 31.8486 144.414 31.8022 144.637 31.8039C144.86 31.8057 145.079 31.8555 145.28 31.95C147.12 32.83 148.96 32.75 150.8 31.71C150.931 31.6368 151.079 31.599 151.229 31.6005C151.378 31.602 151.525 31.6427 151.655 31.7185C151.784 31.7943 151.891 31.9026 151.966 32.0327C152.041 32.1627 152.08 32.3101 152.08 32.46V37.04C152.077 37.2531 151.991 37.4566 151.839 37.6063C151.688 37.7561 151.483 37.84 151.27 37.84H145.22C144.916 37.8426 144.625 37.9646 144.41 38.1797C144.195 38.3948 144.073 38.6858 144.07 38.99V39.59C144.07 39.7819 144.146 39.9661 144.28 40.1027C144.415 40.2393 144.598 40.3174 144.79 40.32H147.79C147.967 40.3197 148.139 40.379 148.277 40.4881C148.415 40.5971 148.511 40.7494 148.55 40.92C149.05 43.0667 148.51 44.7267 146.93 45.9Z" fill="white"/>
<path d="M172.57 53.62H169.63C169.301 53.62 168.986 53.4894 168.753 53.2568C168.521 53.0243 168.39 52.7089 168.39 52.38V32.94C168.39 32.6111 168.521 32.2957 168.753 32.0632C168.986 31.8306 169.301 31.7 169.63 31.7H172.57C172.899 31.7 173.214 31.8306 173.447 32.0632C173.679 32.2957 173.81 32.6111 173.81 32.94V52.38C173.81 52.7089 173.679 53.0243 173.447 53.2568C173.214 53.4894 172.899 53.62 172.57 53.62Z" fill="white"/>
<path d="M209.09 46.24C209.03 46.1867 207.713 45.81 205.14 45.11C200.54 43.85 201.74 39.49 201.39 35.96C201.336 35.447 201.435 34.9293 201.673 34.4708C201.911 34.0124 202.279 33.6331 202.73 33.38L205.57 31.79C205.714 31.7115 205.88 31.6735 206.05 31.68L212.95 32.1C213.041 32.1062 213.131 32.1315 213.214 32.1745C213.296 32.2175 213.37 32.2772 213.43 32.35L215.88 35.37C216.003 35.521 216.087 35.7001 216.126 35.8917C216.164 36.0833 216.155 36.2818 216.1 36.47C215.813 37.4367 215.203 38.3567 214.27 39.23C214.145 39.3478 213.984 39.4184 213.814 39.4294C213.644 39.4404 213.476 39.391 213.34 39.29C212.307 38.5433 210.887 37.99 209.08 37.63C208.737 37.5636 208.383 37.5897 208.054 37.7058C207.725 37.8218 207.434 38.0235 207.21 38.29L207.14 38.38C207.057 38.4804 206.999 38.5993 206.97 38.7266C206.942 38.854 206.945 38.9863 206.978 39.1124C207.012 39.2386 207.074 39.355 207.162 39.4519C207.249 39.5489 207.358 39.6237 207.48 39.67C209.43 40.39 214.16 40.78 215.87 42.33C217.75 44.03 218.233 46.21 217.32 48.87C214.98 55.71 205.84 54.32 201.51 50.6C201.382 50.4923 201.292 50.3462 201.252 50.1827C201.213 50.0192 201.226 49.8467 201.29 49.69C202.577 46.4567 204.653 45.4833 207.52 46.77C207.747 46.87 208.07 46.91 208.49 46.89C208.723 46.8767 208.883 46.8567 208.97 46.83C209.03 46.8127 209.083 46.7795 209.125 46.7338C209.167 46.6882 209.196 46.632 209.208 46.5713C209.221 46.5105 209.216 46.4475 209.195 46.3891C209.174 46.3308 209.138 46.2792 209.09 46.24ZM211.762 47.1606C211.793 47.0843 211.73 46.9742 211.588 46.8545C211.447 46.7348 211.237 46.6154 211.006 46.5224C210.774 46.4294 210.54 46.3705 210.355 46.3587C210.17 46.3469 210.048 46.3831 210.018 46.4594C209.987 46.5357 210.05 46.6458 210.192 46.7655C210.333 46.8852 210.543 47.0046 210.774 47.0976C211.006 47.1906 211.24 47.2495 211.425 47.2613C211.61 47.2731 211.732 47.2369 211.762 47.1606Z" fill="white"/>
<path d="M238.09 46.97C238.089 47.0377 238.105 47.1044 238.136 47.1648C238.167 47.2251 238.212 47.2774 238.268 47.3174C238.323 47.3573 238.388 47.3838 238.456 47.3947C238.524 47.4056 238.594 47.4005 238.66 47.38C239.24 47.1733 239.853 47.2533 240.5 47.62C240.549 47.6482 240.604 47.663 240.661 47.6629C240.717 47.6628 240.773 47.6477 240.821 47.6193C240.87 47.5909 240.91 47.5501 240.938 47.501C240.966 47.452 240.981 47.3964 240.98 47.34L241.09 33.96C241.093 33.6876 241.158 33.4194 241.28 33.1761C241.403 32.9328 241.58 32.7208 241.797 32.5566C242.014 32.3924 242.266 32.2802 242.534 32.2288C242.801 32.1774 243.077 32.1881 243.34 32.26H243.37C243.985 32.4222 244.528 32.7846 244.913 33.2898C245.299 33.795 245.505 34.4144 245.5 35.05L245.36 49.99C245.353 50.655 245.143 51.3017 244.759 51.8433C244.374 52.3849 243.834 52.7955 243.21 53.02C241.57 53.6133 239.55 53.7833 237.15 53.53C232.57 53.03 232.91 49.69 232.84 45.65C232.793 42.33 232.79 38.26 232.83 33.44C232.832 33.1872 232.89 32.9379 233 32.7103C233.11 32.4828 233.27 32.2827 233.467 32.1246C233.665 31.9665 233.895 31.8545 234.141 31.7966C234.387 31.7387 234.643 31.7365 234.89 31.79L236.04 32.03C236.626 32.1581 237.149 32.4831 237.524 32.9508C237.899 33.4185 238.102 34.0006 238.1 34.6L238.09 46.97Z" fill="white"/>
<path d="M265.38 35.57C265.389 35.0109 265.589 34.472 265.945 34.0426C266.302 33.6133 266.794 33.3195 267.34 33.21L274.35 31.77C274.898 31.6592 275.468 31.7538 275.951 32.0359C276.435 32.3181 276.797 32.768 276.97 33.3C278.45 37.7733 279.003 42.61 278.63 47.81C278.497 49.7233 277.76 51.2733 276.42 52.46C276.169 52.6843 275.88 52.8575 275.57 52.97C272.3 54.14 266.08 54.03 265.46 49.59C264.81 45 265.33 40.34 265.38 35.57ZM272.62 37.21L271.2 37.24C271.142 37.2413 271.085 37.254 271.032 37.2773C270.979 37.3006 270.932 37.3341 270.892 37.3759C270.852 37.4177 270.821 37.4669 270.8 37.5208C270.779 37.5747 270.769 37.6322 270.77 37.69L270.97 46.34C270.985 46.9732 271.045 47.579 271.136 48.0263C271.228 48.4736 271.344 48.7264 271.46 48.73L272.88 48.7C272.938 48.7022 272.995 48.6411 273.046 48.5203C273.097 48.3995 273.142 48.2214 273.178 47.9964C273.215 47.7713 273.241 47.5037 273.257 47.2091C273.273 46.9145 273.277 46.5987 273.27 46.28L273.07 37.64C273.069 37.5822 273.056 37.5252 273.033 37.4724C273.009 37.4195 272.976 37.3717 272.934 37.3318C272.892 37.2918 272.843 37.2605 272.789 37.2396C272.735 37.2187 272.678 37.2087 272.62 37.21Z" fill="white"/>
<path d="M284.41 46.52V53.08C284.41 53.2179 284.355 53.3502 284.258 53.4477C284.16 53.5452 284.028 53.6 283.89 53.6H280.43C280.228 53.6 280.035 53.5189 279.893 53.3745C279.75 53.2301 279.67 53.0342 279.67 52.83V32.62C279.67 32.4237 279.748 32.2355 279.887 32.0967C280.026 31.958 280.214 31.88 280.41 31.88H283.9C284.061 31.8798 284.221 31.9124 284.37 31.976C284.52 32.0395 284.656 32.1327 284.77 32.25C285.703 33.2233 286.213 34.59 286.3 36.35C286.31 36.6162 286.423 36.868 286.615 37.0526C286.808 37.2372 287.064 37.3402 287.33 37.34H287.62C287.736 37.3395 287.85 37.3144 287.956 37.2664C288.061 37.2185 288.155 37.1488 288.232 37.0619C288.308 36.975 288.365 36.8728 288.4 36.7622C288.434 36.6516 288.444 36.5349 288.43 36.42C288.263 35.16 288.473 33.88 289.06 32.58C289.147 32.3856 289.281 32.2154 289.449 32.0843C289.617 31.9532 289.815 31.8651 290.025 31.8276C290.235 31.7902 290.45 31.8045 290.653 31.8694C290.857 31.9343 291.041 32.0478 291.19 32.2C291.537 32.5533 291.963 32.8133 292.47 32.98C292.649 33.0355 292.806 33.147 292.918 33.2981C293.03 33.4493 293.09 33.6321 293.09 33.82V52.98C293.09 53.1418 293.026 53.2969 292.911 53.4113C292.797 53.5257 292.642 53.59 292.48 53.59H288.17C288.03 53.59 287.893 53.5468 287.779 53.4663C287.664 53.3857 287.577 53.2718 287.53 53.14L285.11 46.39C285.082 46.3086 285.025 46.2399 284.951 46.1966C284.876 46.1532 284.789 46.138 284.704 46.1538C284.619 46.1695 284.543 46.2151 284.489 46.2823C284.435 46.3495 284.407 46.4339 284.41 46.52Z" fill="white"/>
<path d="M6.09 35.01C6.30333 35.3967 6.35333 35.7833 6.24 36.17L5.51 35.68C5.79 35.5133 5.98333 35.29 6.09 35.01Z" fill="#141617"/>
<path d="M5.51 35.68L6.24 36.17C9.21 40.1 13.57 39.59 18.49 39.41C18.8244 39.3969 19.152 39.4693 19.44 39.62C23 41.47 26.41 39.73 29.14 37.33C29.3528 37.1393 29.6316 37.0389 29.9171 37.0501C30.2027 37.0613 30.4727 37.1832 30.67 37.39C33.4967 40.3567 34.7033 43.88 34.29 47.96C33.03 55.27 25.87 59.24 19.02 60H15.12C2.5 58.49 -5.92 45.66 5.51 35.68ZM16.88 43.37C16.88 42.6963 16.6124 42.0503 16.136 41.5739C15.6597 41.0976 15.0136 40.83 14.34 40.83C13.6663 40.83 13.0203 41.0976 12.5439 41.5739C12.0676 42.0503 11.8 42.6963 11.8 43.37C11.8 44.0436 12.0676 44.6897 12.5439 45.166C13.0203 45.6424 13.6663 45.91 14.34 45.91C15.0136 45.91 15.6597 45.6424 16.136 45.166C16.6124 44.6897 16.88 44.0436 16.88 43.37ZM16.81 51.69C16.81 51.0084 16.5392 50.3547 16.0573 49.8727C15.5753 49.3908 14.9216 49.12 14.24 49.12C13.5584 49.12 12.9047 49.3908 12.4227 49.8727C11.9408 50.3547 11.67 51.0084 11.67 51.69C11.67 52.3716 11.9408 53.0253 12.4227 53.5073C12.9047 53.9892 13.5584 54.26 14.24 54.26C14.9216 54.26 15.5753 53.9892 16.0573 53.5073C16.5392 53.0253 16.81 52.3716 16.81 51.69Z" fill="white"/>
<path d="M14.34 45.91C15.7428 45.91 16.88 44.7728 16.88 43.37C16.88 41.9672 15.7428 40.83 14.34 40.83C12.9372 40.83 11.8 41.9672 11.8 43.37C11.8 44.7728 12.9372 45.91 14.34 45.91Z" fill="#141617"/>
<path d="M36.25 48.8C38.7233 46.9933 40.4833 44.9467 41.53 42.66C42.2833 42.9933 42.99 43.4933 43.65 44.16C43.9343 44.4468 44.1044 44.8273 44.1283 45.2305C44.1523 45.6336 44.0284 46.0316 43.78 46.35L40.32 50.78C40.1647 50.9793 39.9654 51.14 39.7378 51.2496C39.5101 51.3592 39.2602 51.4147 39.0076 51.4118C38.7549 51.4089 38.5064 51.3477 38.2813 51.2329C38.0562 51.1181 37.8607 50.9528 37.71 50.75L36.25 48.8Z" fill="#141617"/>
<path d="M14.24 54.26C15.6594 54.26 16.81 53.1094 16.81 51.69C16.81 50.2706 15.6594 49.12 14.24 49.12C12.8206 49.12 11.67 50.2706 11.67 51.69C11.67 53.1094 12.8206 54.26 14.24 54.26Z" fill="#141617"/>
</svg>
